<mxfile host="Electron" modified="2023-06-15T15:42:57.701Z" agent="Mozilla/5.0 (Windows NT 10.0; Win64; x64) AppleWebKit/537.36 (KHTML, like Gecko) draw.io/21.4.0 Chrome/112.0.5615.204 Electron/24.5.1 Safari/537.36" etag="f9N0d7Ayhfy7nyyiRwVU" version="21.4.0" type="device" pages="8">
  <diagram name="Page-1" id="tqMP6LUTBTMePXm0T18Q">
    <mxGraphModel dx="2058" dy="3020" grid="1" gridSize="10" guides="1" tooltips="1" connect="1" arrows="1" fold="1" page="1" pageScale="1" pageWidth="850" pageHeight="1100" math="0" shadow="0">
      <root>
        <mxCell id="0" />
        <mxCell id="1" parent="0" />
        <mxCell id="tJGZe25Awh_DduKygmRr-1" value="Terrain" style="rounded=0;whiteSpace=wrap;html=1;" parent="1" vertex="1">
          <mxGeometry x="80" y="-1040" width="120" height="80" as="geometry" />
        </mxCell>
        <mxCell id="tJGZe25Awh_DduKygmRr-2" value="Node" style="rounded=0;whiteSpace=wrap;html=1;" parent="1" vertex="1">
          <mxGeometry x="320" y="-1050" width="120" height="100" as="geometry" />
        </mxCell>
        <mxCell id="tJGZe25Awh_DduKygmRr-3" value="Quest" style="rounded=0;whiteSpace=wrap;html=1;fillColor=#f8cecc;strokeColor=#b85450;" parent="1" vertex="1">
          <mxGeometry x="560" y="-1080" width="120" height="80" as="geometry" />
        </mxCell>
        <mxCell id="tJGZe25Awh_DduKygmRr-4" value="" style="edgeStyle=entityRelationEdgeStyle;fontSize=12;html=1;endArrow=ERmany;rounded=0;exitX=1;exitY=0.5;exitDx=0;exitDy=0;entryX=0;entryY=0.5;entryDx=0;entryDy=0;" parent="1" source="tJGZe25Awh_DduKygmRr-1" target="tJGZe25Awh_DduKygmRr-2" edge="1">
          <mxGeometry width="100" height="100" relative="1" as="geometry">
            <mxPoint x="560" y="-790" as="sourcePoint" />
            <mxPoint x="660" y="-890" as="targetPoint" />
          </mxGeometry>
        </mxCell>
        <mxCell id="tJGZe25Awh_DduKygmRr-5" value="" style="edgeStyle=entityRelationEdgeStyle;fontSize=12;html=1;endArrow=ERmany;rounded=0;exitX=1;exitY=0.5;exitDx=0;exitDy=0;entryX=0;entryY=0.5;entryDx=0;entryDy=0;" parent="1" source="tJGZe25Awh_DduKygmRr-2" target="tJGZe25Awh_DduKygmRr-3" edge="1">
          <mxGeometry width="100" height="100" relative="1" as="geometry">
            <mxPoint x="440" y="-930" as="sourcePoint" />
            <mxPoint x="560" y="-930" as="targetPoint" />
          </mxGeometry>
        </mxCell>
        <mxCell id="tJGZe25Awh_DduKygmRr-7" value="Слово" style="rounded=0;whiteSpace=wrap;html=1;" parent="1" vertex="1">
          <mxGeometry x="1230" y="-830" width="120" height="80" as="geometry" />
        </mxCell>
        <mxCell id="tJGZe25Awh_DduKygmRr-9" value="" style="edgeStyle=entityRelationEdgeStyle;fontSize=12;html=1;endArrow=ERmany;rounded=0;exitX=1;exitY=0.5;exitDx=0;exitDy=0;entryX=0;entryY=0.5;entryDx=0;entryDy=0;" parent="1" source="tJGZe25Awh_DduKygmRr-7" target="tJGZe25Awh_DduKygmRr-12" edge="1">
          <mxGeometry width="100" height="100" relative="1" as="geometry">
            <mxPoint x="1400" y="-860" as="sourcePoint" />
            <mxPoint x="1470" y="-790" as="targetPoint" />
          </mxGeometry>
        </mxCell>
        <mxCell id="tJGZe25Awh_DduKygmRr-10" value="Объект - вопрос&lt;br&gt;(LQuestion)" style="rounded=0;whiteSpace=wrap;html=1;" parent="1" vertex="1">
          <mxGeometry x="1380" y="-580" width="200" height="40" as="geometry" />
        </mxCell>
        <mxCell id="tJGZe25Awh_DduKygmRr-12" value="Мысль" style="rounded=0;whiteSpace=wrap;html=1;" parent="1" vertex="1">
          <mxGeometry x="1510" y="-830" width="120" height="80" as="geometry" />
        </mxCell>
        <mxCell id="tJGZe25Awh_DduKygmRr-13" value="Предложение на русском на Х языке" style="rounded=0;whiteSpace=wrap;html=1;" parent="1" vertex="1">
          <mxGeometry x="1750" y="-790" width="120" height="60" as="geometry" />
        </mxCell>
        <mxCell id="tJGZe25Awh_DduKygmRr-18" value="" style="edgeStyle=entityRelationEdgeStyle;fontSize=12;html=1;endArrow=ERmany;rounded=0;exitX=1;exitY=0.5;exitDx=0;exitDy=0;entryX=0;entryY=0.5;entryDx=0;entryDy=0;" parent="1" source="tJGZe25Awh_DduKygmRr-12" target="tJGZe25Awh_DduKygmRr-13" edge="1">
          <mxGeometry width="100" height="100" relative="1" as="geometry">
            <mxPoint x="1590" y="-580" as="sourcePoint" />
            <mxPoint x="1730" y="-720" as="targetPoint" />
          </mxGeometry>
        </mxCell>
        <mxCell id="tJGZe25Awh_DduKygmRr-20" value="+ логика генерации вопроса&lt;br&gt;++ коллекция мыслей&lt;br&gt;++ по выбору, извлечение на Х языке&lt;br&gt;++ ответ дать на др" style="rounded=0;whiteSpace=wrap;html=1;verticalAlign=top;align=left;" parent="1" vertex="1">
          <mxGeometry x="1380" y="-540" width="200" height="160" as="geometry" />
        </mxCell>
        <mxCell id="tJGZe25Awh_DduKygmRr-25" value="LQuestions" style="shape=table;startSize=30;container=1;collapsible=1;childLayout=tableLayout;fixedRows=1;rowLines=0;fontStyle=1;align=center;resizeLast=1;html=1;" parent="1" vertex="1">
          <mxGeometry x="360" y="-640" width="200" height="90" as="geometry">
            <mxRectangle x="160" y="-840" width="70" height="30" as="alternateBounds" />
          </mxGeometry>
        </mxCell>
        <mxCell id="tJGZe25Awh_DduKygmRr-26" value="" style="shape=tableRow;horizontal=0;startSize=0;swimlaneHead=0;swimlaneBody=0;fillColor=none;collapsible=0;dropTarget=0;points=[[0,0.5],[1,0.5]];portConstraint=eastwest;top=0;left=0;right=0;bottom=1;" parent="tJGZe25Awh_DduKygmRr-25" vertex="1">
          <mxGeometry y="30" width="200" height="30" as="geometry" />
        </mxCell>
        <mxCell id="tJGZe25Awh_DduKygmRr-27" value="PK" style="shape=partialRectangle;connectable=0;fillColor=none;top=0;left=0;bottom=0;right=0;fontStyle=1;overflow=hidden;whiteSpace=wrap;html=1;" parent="tJGZe25Awh_DduKygmRr-26" vertex="1">
          <mxGeometry width="30" height="30" as="geometry">
            <mxRectangle width="30" height="30" as="alternateBounds" />
          </mxGeometry>
        </mxCell>
        <mxCell id="tJGZe25Awh_DduKygmRr-28" value="id" style="shape=partialRectangle;connectable=0;fillColor=none;top=0;left=0;bottom=0;right=0;align=left;spacingLeft=6;fontStyle=5;overflow=hidden;whiteSpace=wrap;html=1;" parent="tJGZe25Awh_DduKygmRr-26" vertex="1">
          <mxGeometry x="30" width="170" height="30" as="geometry">
            <mxRectangle width="170" height="30" as="alternateBounds" />
          </mxGeometry>
        </mxCell>
        <mxCell id="tJGZe25Awh_DduKygmRr-29" value="" style="shape=tableRow;horizontal=0;startSize=0;swimlaneHead=0;swimlaneBody=0;fillColor=none;collapsible=0;dropTarget=0;points=[[0,0.5],[1,0.5]];portConstraint=eastwest;top=0;left=0;right=0;bottom=0;" parent="tJGZe25Awh_DduKygmRr-25" vertex="1">
          <mxGeometry y="60" width="200" height="30" as="geometry" />
        </mxCell>
        <mxCell id="tJGZe25Awh_DduKygmRr-30" value="" style="shape=partialRectangle;connectable=0;fillColor=none;top=0;left=0;bottom=0;right=0;editable=1;overflow=hidden;whiteSpace=wrap;html=1;" parent="tJGZe25Awh_DduKygmRr-29" vertex="1">
          <mxGeometry width="30" height="30" as="geometry">
            <mxRectangle width="30" height="30" as="alternateBounds" />
          </mxGeometry>
        </mxCell>
        <mxCell id="tJGZe25Awh_DduKygmRr-31" value="name" style="shape=partialRectangle;connectable=0;fillColor=none;top=0;left=0;bottom=0;right=0;align=left;spacingLeft=6;overflow=hidden;whiteSpace=wrap;html=1;" parent="tJGZe25Awh_DduKygmRr-29" vertex="1">
          <mxGeometry x="30" width="170" height="30" as="geometry">
            <mxRectangle width="170" height="30" as="alternateBounds" />
          </mxGeometry>
        </mxCell>
        <mxCell id="x6LgpujZArKFxPUKotVR-17" style="edgeStyle=orthogonalEdgeStyle;rounded=0;orthogonalLoop=1;jettySize=auto;html=1;exitX=1;exitY=0.5;exitDx=0;exitDy=0;" parent="1" source="n4_OK6z4FbkKfxtTNhua-1" target="x6LgpujZArKFxPUKotVR-14" edge="1">
          <mxGeometry relative="1" as="geometry" />
        </mxCell>
        <mxCell id="n4_OK6z4FbkKfxtTNhua-1" value="Text" style="rounded=0;whiteSpace=wrap;html=1;fillColor=#fff2cc;strokeColor=#d6b656;" parent="1" vertex="1">
          <mxGeometry x="560" y="-1200" width="120" height="60" as="geometry" />
        </mxCell>
        <mxCell id="n4_OK6z4FbkKfxtTNhua-3" value="" style="edgeStyle=entityRelationEdgeStyle;fontSize=12;html=1;endArrow=ERmany;rounded=0;entryX=0;entryY=0.5;entryDx=0;entryDy=0;exitX=1;exitY=0.25;exitDx=0;exitDy=0;" parent="1" source="tJGZe25Awh_DduKygmRr-2" target="n4_OK6z4FbkKfxtTNhua-1" edge="1">
          <mxGeometry width="100" height="100" relative="1" as="geometry">
            <mxPoint x="290" y="-1110" as="sourcePoint" />
            <mxPoint x="269.99999999999955" y="-1030" as="targetPoint" />
          </mxGeometry>
        </mxCell>
        <mxCell id="x6LgpujZArKFxPUKotVR-18" style="edgeStyle=orthogonalEdgeStyle;rounded=0;orthogonalLoop=1;jettySize=auto;html=1;exitX=1;exitY=0.5;exitDx=0;exitDy=0;" parent="1" source="n4_OK6z4FbkKfxtTNhua-4" target="x6LgpujZArKFxPUKotVR-15" edge="1">
          <mxGeometry relative="1" as="geometry" />
        </mxCell>
        <mxCell id="n4_OK6z4FbkKfxtTNhua-4" value="Chunk" style="rounded=0;whiteSpace=wrap;html=1;fillColor=#d5e8d4;strokeColor=#82b366;" parent="1" vertex="1">
          <mxGeometry x="560" y="-960" width="120" height="60" as="geometry" />
        </mxCell>
        <mxCell id="n4_OK6z4FbkKfxtTNhua-5" value="" style="edgeStyle=entityRelationEdgeStyle;fontSize=12;html=1;endArrow=ERmany;rounded=0;entryX=0;entryY=0.5;entryDx=0;entryDy=0;exitX=1;exitY=0.75;exitDx=0;exitDy=0;" parent="1" source="tJGZe25Awh_DduKygmRr-2" target="n4_OK6z4FbkKfxtTNhua-4" edge="1">
          <mxGeometry width="100" height="100" relative="1" as="geometry">
            <mxPoint x="440" y="-1010" as="sourcePoint" />
            <mxPoint x="570" y="-1160" as="targetPoint" />
          </mxGeometry>
        </mxCell>
        <mxCell id="x6LgpujZArKFxPUKotVR-19" style="edgeStyle=orthogonalEdgeStyle;rounded=0;orthogonalLoop=1;jettySize=auto;html=1;exitX=1;exitY=0.5;exitDx=0;exitDy=0;" parent="1" source="6VScE1CWVLP8EJzD8PPN-1" target="x6LgpujZArKFxPUKotVR-16" edge="1">
          <mxGeometry relative="1" as="geometry" />
        </mxCell>
        <mxCell id="6VScE1CWVLP8EJzD8PPN-1" value="Thought" style="rounded=0;whiteSpace=wrap;html=1;fillColor=#d5e8d4;strokeColor=#82b366;" parent="1" vertex="1">
          <mxGeometry x="560" y="-880" width="120" height="60" as="geometry" />
        </mxCell>
        <mxCell id="6VScE1CWVLP8EJzD8PPN-2" value="" style="edgeStyle=entityRelationEdgeStyle;fontSize=12;html=1;endArrow=ERmany;rounded=0;entryX=0;entryY=0.5;entryDx=0;entryDy=0;exitX=1.007;exitY=0.883;exitDx=0;exitDy=0;exitPerimeter=0;" parent="1" source="tJGZe25Awh_DduKygmRr-2" target="6VScE1CWVLP8EJzD8PPN-1" edge="1">
          <mxGeometry width="100" height="100" relative="1" as="geometry">
            <mxPoint x="440" y="-970" as="sourcePoint" />
            <mxPoint x="570" y="-920" as="targetPoint" />
          </mxGeometry>
        </mxCell>
        <mxCell id="x6LgpujZArKFxPUKotVR-3" style="edgeStyle=orthogonalEdgeStyle;rounded=0;orthogonalLoop=1;jettySize=auto;html=1;exitX=1;exitY=0.5;exitDx=0;exitDy=0;entryX=0;entryY=0.5;entryDx=0;entryDy=0;" parent="1" source="x6LgpujZArKFxPUKotVR-1" target="x6LgpujZArKFxPUKotVR-2" edge="1">
          <mxGeometry relative="1" as="geometry" />
        </mxCell>
        <mxCell id="x6LgpujZArKFxPUKotVR-1" value="Но нужны объекты производства полезной работы; оценки единиц произведенной продукции" style="text;html=1;strokeColor=#b85450;fillColor=#f8cecc;align=center;verticalAlign=middle;whiteSpace=wrap;rounded=0;" parent="1" vertex="1">
          <mxGeometry x="40" y="-1560" width="200" height="80" as="geometry" />
        </mxCell>
        <mxCell id="x6LgpujZArKFxPUKotVR-2" value="Изначально был buliding, который теперь Node" style="text;html=1;strokeColor=#b85450;fillColor=#f8cecc;align=center;verticalAlign=middle;whiteSpace=wrap;rounded=0;" parent="1" vertex="1">
          <mxGeometry x="280" y="-1560" width="200" height="80" as="geometry" />
        </mxCell>
        <mxCell id="x6LgpujZArKFxPUKotVR-4" value="Придумать предложение с использованием слова" style="text;html=1;strokeColor=#82b366;fillColor=#d5e8d4;align=center;verticalAlign=middle;whiteSpace=wrap;rounded=0;" parent="1" vertex="1">
          <mxGeometry x="560" y="-1680" width="280" height="40" as="geometry" />
        </mxCell>
        <mxCell id="x6LgpujZArKFxPUKotVR-8" style="edgeStyle=orthogonalEdgeStyle;rounded=0;orthogonalLoop=1;jettySize=auto;html=1;exitX=1;exitY=0.5;exitDx=0;exitDy=0;entryX=0;entryY=0.5;entryDx=0;entryDy=0;" parent="1" source="x6LgpujZArKFxPUKotVR-5" target="x6LgpujZArKFxPUKotVR-7" edge="1">
          <mxGeometry relative="1" as="geometry" />
        </mxCell>
        <mxCell id="x6LgpujZArKFxPUKotVR-5" value="Ответить на вопрос, повторить значение" style="text;html=1;strokeColor=#82b366;fillColor=#d5e8d4;align=center;verticalAlign=middle;whiteSpace=wrap;rounded=0;" parent="1" vertex="1">
          <mxGeometry x="560" y="-1620" width="280" height="40" as="geometry" />
        </mxCell>
        <mxCell id="x6LgpujZArKFxPUKotVR-6" value="Единицы полезной работы" style="text;html=1;strokeColor=none;fillColor=none;align=center;verticalAlign=middle;whiteSpace=wrap;rounded=0;" parent="1" vertex="1">
          <mxGeometry x="600" y="-1720" width="200" height="30" as="geometry" />
        </mxCell>
        <mxCell id="x6LgpujZArKFxPUKotVR-7" value="Выучить и запомнить слово, выражение, предложение" style="text;html=1;strokeColor=#82b366;fillColor=#d5e8d4;align=center;verticalAlign=middle;whiteSpace=wrap;rounded=0;" parent="1" vertex="1">
          <mxGeometry x="880" y="-1620" width="280" height="40" as="geometry" />
        </mxCell>
        <mxCell id="x6LgpujZArKFxPUKotVR-11" style="edgeStyle=orthogonalEdgeStyle;rounded=0;orthogonalLoop=1;jettySize=auto;html=1;exitX=1;exitY=0.5;exitDx=0;exitDy=0;" parent="1" source="x6LgpujZArKFxPUKotVR-9" target="x6LgpujZArKFxPUKotVR-10" edge="1">
          <mxGeometry relative="1" as="geometry" />
        </mxCell>
        <mxCell id="x6LgpujZArKFxPUKotVR-9" value="На эти элементы можно навешивать задания" style="text;html=1;strokeColor=none;fillColor=none;align=center;verticalAlign=middle;whiteSpace=wrap;rounded=0;" parent="1" vertex="1">
          <mxGeometry x="720" y="-1280" width="200" height="40" as="geometry" />
        </mxCell>
        <mxCell id="x6LgpujZArKFxPUKotVR-13" style="edgeStyle=entityRelationEdgeStyle;rounded=0;orthogonalLoop=1;jettySize=auto;html=1;exitX=1;exitY=0.5;exitDx=0;exitDy=0;" parent="1" source="x6LgpujZArKFxPUKotVR-10" target="x6LgpujZArKFxPUKotVR-12" edge="1">
          <mxGeometry relative="1" as="geometry" />
        </mxCell>
        <mxCell id="x6LgpujZArKFxPUKotVR-10" value="Quest это уже задание, которое требует исходных элементов" style="text;html=1;strokeColor=none;fillColor=none;align=center;verticalAlign=middle;whiteSpace=wrap;rounded=0;" parent="1" vertex="1">
          <mxGeometry x="960" y="-1280" width="200" height="40" as="geometry" />
        </mxCell>
        <mxCell id="x6LgpujZArKFxPUKotVR-12" value="Отдельный модуль берет объекты Thought из облака, месячной давности и предлагает повторить - ответить значени е" style="text;html=1;strokeColor=none;fillColor=none;align=center;verticalAlign=middle;whiteSpace=wrap;rounded=0;" parent="1" vertex="1">
          <mxGeometry x="1240" y="-1280" width="230" height="70" as="geometry" />
        </mxCell>
        <mxCell id="x6LgpujZArKFxPUKotVR-14" value="Исходник - текст на разбор" style="text;html=1;strokeColor=none;fillColor=none;align=center;verticalAlign=middle;whiteSpace=wrap;rounded=0;" parent="1" vertex="1">
          <mxGeometry x="720" y="-1190" width="150" height="35" as="geometry" />
        </mxCell>
        <mxCell id="x6LgpujZArKFxPUKotVR-15" value="Части текста" style="text;html=1;strokeColor=none;fillColor=none;align=center;verticalAlign=middle;whiteSpace=wrap;rounded=0;" parent="1" vertex="1">
          <mxGeometry x="720" y="-960" width="150" height="35" as="geometry" />
        </mxCell>
        <mxCell id="x6LgpujZArKFxPUKotVR-16" value="Части текста" style="text;html=1;strokeColor=none;fillColor=none;align=center;verticalAlign=middle;whiteSpace=wrap;rounded=0;" parent="1" vertex="1">
          <mxGeometry x="730" y="-890" width="150" height="35" as="geometry" />
        </mxCell>
        <mxCell id="n0hUvY1jaryOOK7IHcrT-1" value="Перевести рассказ" style="text;html=1;strokeColor=#82b366;fillColor=#d5e8d4;align=center;verticalAlign=middle;whiteSpace=wrap;rounded=0;" parent="1" vertex="1">
          <mxGeometry x="560" y="-1560" width="280" height="40" as="geometry" />
        </mxCell>
        <mxCell id="n0hUvY1jaryOOK7IHcrT-2" value="Придумать рассказ" style="text;html=1;strokeColor=#82b366;fillColor=#d5e8d4;align=center;verticalAlign=middle;whiteSpace=wrap;rounded=0;" parent="1" vertex="1">
          <mxGeometry x="560" y="-1500" width="280" height="40" as="geometry" />
        </mxCell>
      </root>
    </mxGraphModel>
  </diagram>
  <diagram id="B-euCr4LAnl4oewoDh70" name="Page-2">
    <mxGraphModel dx="7387" dy="3111" grid="1" gridSize="10" guides="1" tooltips="1" connect="1" arrows="1" fold="1" page="1" pageScale="1" pageWidth="850" pageHeight="1100" math="0" shadow="0">
      <root>
        <mxCell id="0" />
        <mxCell id="1" parent="0" />
        <mxCell id="R1HXZZPbrGMMnAwzmzMF-10" value="&lt;h1&gt;Цель 1&lt;/h1&gt;&lt;p&gt;Придумать предложение;&lt;br&gt;&lt;span style=&quot;background-color: initial;&quot;&gt;Привязать к слову&lt;/span&gt;&lt;/p&gt;" style="text;html=1;strokeColor=none;fillColor=none;spacing=5;spacingTop=-20;whiteSpace=wrap;overflow=hidden;rounded=0;" parent="1" vertex="1">
          <mxGeometry x="370" y="390" width="190" height="100" as="geometry" />
        </mxCell>
        <mxCell id="R1HXZZPbrGMMnAwzmzMF-11" value="&lt;h1&gt;Цель 2&lt;/h1&gt;&lt;p&gt;Повторять мысли, чтобы запомнить; делать путем упражнений &quot;вспомнить&quot;&lt;/p&gt;" style="text;html=1;strokeColor=none;fillColor=none;spacing=5;spacingTop=-20;whiteSpace=wrap;overflow=hidden;rounded=0;" parent="1" vertex="1">
          <mxGeometry x="650" y="390" width="190" height="110" as="geometry" />
        </mxCell>
        <mxCell id="R1HXZZPbrGMMnAwzmzMF-12" value="&lt;h1&gt;Цель 3&lt;/h1&gt;&lt;p&gt;Повторять значение слов; делать упражнение &quot;вспомнить&quot;&lt;/p&gt;" style="text;html=1;strokeColor=none;fillColor=none;spacing=5;spacingTop=-20;whiteSpace=wrap;overflow=hidden;rounded=0;" parent="1" vertex="1">
          <mxGeometry x="890" y="390" width="190" height="110" as="geometry" />
        </mxCell>
        <mxCell id="4s1VpzhszTv433DMvUbN-2" value="Lexem" style="swimlane;fontStyle=0;childLayout=stackLayout;horizontal=1;startSize=26;horizontalStack=0;resizeParent=1;resizeParentMax=0;resizeLast=0;collapsible=1;marginBottom=0;align=center;fontSize=14;" parent="1" vertex="1">
          <mxGeometry x="250" y="600" width="160" height="116" as="geometry" />
        </mxCell>
        <mxCell id="4s1VpzhszTv433DMvUbN-3" value="id" style="text;strokeColor=none;fillColor=none;spacingLeft=4;spacingRight=4;overflow=hidden;rotatable=0;points=[[0,0.5],[1,0.5]];portConstraint=eastwest;fontSize=12;whiteSpace=wrap;html=1;" parent="4s1VpzhszTv433DMvUbN-2" vertex="1">
          <mxGeometry y="26" width="160" height="30" as="geometry" />
        </mxCell>
        <mxCell id="4s1VpzhszTv433DMvUbN-4" value="text" style="text;strokeColor=none;fillColor=none;spacingLeft=4;spacingRight=4;overflow=hidden;rotatable=0;points=[[0,0.5],[1,0.5]];portConstraint=eastwest;fontSize=12;whiteSpace=wrap;html=1;" parent="4s1VpzhszTv433DMvUbN-2" vertex="1">
          <mxGeometry y="56" width="160" height="30" as="geometry" />
        </mxCell>
        <mxCell id="4s1VpzhszTv433DMvUbN-5" value="lng" style="text;strokeColor=none;fillColor=none;spacingLeft=4;spacingRight=4;overflow=hidden;rotatable=0;points=[[0,0.5],[1,0.5]];portConstraint=eastwest;fontSize=12;whiteSpace=wrap;html=1;" parent="4s1VpzhszTv433DMvUbN-2" vertex="1">
          <mxGeometry y="86" width="160" height="30" as="geometry" />
        </mxCell>
        <mxCell id="4s1VpzhszTv433DMvUbN-6" value="LexemMeaning" style="swimlane;fontStyle=0;childLayout=stackLayout;horizontal=1;startSize=26;horizontalStack=0;resizeParent=1;resizeParentMax=0;resizeLast=0;collapsible=1;marginBottom=0;align=center;fontSize=14;" parent="1" vertex="1">
          <mxGeometry x="-30" y="600" width="200" height="146" as="geometry" />
        </mxCell>
        <mxCell id="4s1VpzhszTv433DMvUbN-7" value="id" style="text;strokeColor=none;fillColor=none;spacingLeft=4;spacingRight=4;overflow=hidden;rotatable=0;points=[[0,0.5],[1,0.5]];portConstraint=eastwest;fontSize=12;whiteSpace=wrap;html=1;" parent="4s1VpzhszTv433DMvUbN-6" vertex="1">
          <mxGeometry y="26" width="200" height="30" as="geometry" />
        </mxCell>
        <mxCell id="4s1VpzhszTv433DMvUbN-8" value="text" style="text;strokeColor=none;fillColor=none;spacingLeft=4;spacingRight=4;overflow=hidden;rotatable=0;points=[[0,0.5],[1,0.5]];portConstraint=eastwest;fontSize=12;whiteSpace=wrap;html=1;" parent="4s1VpzhszTv433DMvUbN-6" vertex="1">
          <mxGeometry y="56" width="200" height="30" as="geometry" />
        </mxCell>
        <mxCell id="4s1VpzhszTv433DMvUbN-9" value="lng" style="text;strokeColor=none;fillColor=none;spacingLeft=4;spacingRight=4;overflow=hidden;rotatable=0;points=[[0,0.5],[1,0.5]];portConstraint=eastwest;fontSize=12;whiteSpace=wrap;html=1;" parent="4s1VpzhszTv433DMvUbN-6" vertex="1">
          <mxGeometry y="86" width="200" height="30" as="geometry" />
        </mxCell>
        <mxCell id="4s1VpzhszTv433DMvUbN-11" value="lexemId" style="text;strokeColor=none;fillColor=none;spacingLeft=4;spacingRight=4;overflow=hidden;rotatable=0;points=[[0,0.5],[1,0.5]];portConstraint=eastwest;fontSize=12;whiteSpace=wrap;html=1;" parent="4s1VpzhszTv433DMvUbN-6" vertex="1">
          <mxGeometry y="116" width="200" height="30" as="geometry" />
        </mxCell>
        <mxCell id="4s1VpzhszTv433DMvUbN-12" value="Thought" style="swimlane;fontStyle=0;childLayout=stackLayout;horizontal=1;startSize=26;horizontalStack=0;resizeParent=1;resizeParentMax=0;resizeLast=0;collapsible=1;marginBottom=0;align=center;fontSize=14;" parent="1" vertex="1">
          <mxGeometry x="160" y="822" width="200" height="116" as="geometry" />
        </mxCell>
        <mxCell id="4s1VpzhszTv433DMvUbN-13" value="id" style="text;strokeColor=none;fillColor=none;spacingLeft=4;spacingRight=4;overflow=hidden;rotatable=0;points=[[0,0.5],[1,0.5]];portConstraint=eastwest;fontSize=12;whiteSpace=wrap;html=1;" parent="4s1VpzhszTv433DMvUbN-12" vertex="1">
          <mxGeometry y="26" width="200" height="30" as="geometry" />
        </mxCell>
        <mxCell id="4s1VpzhszTv433DMvUbN-14" value="text" style="text;strokeColor=none;fillColor=none;spacingLeft=4;spacingRight=4;overflow=hidden;rotatable=0;points=[[0,0.5],[1,0.5]];portConstraint=eastwest;fontSize=12;whiteSpace=wrap;html=1;" parent="4s1VpzhszTv433DMvUbN-12" vertex="1">
          <mxGeometry y="56" width="200" height="30" as="geometry" />
        </mxCell>
        <mxCell id="4s1VpzhszTv433DMvUbN-15" value="lng" style="text;strokeColor=none;fillColor=none;spacingLeft=4;spacingRight=4;overflow=hidden;rotatable=0;points=[[0,0.5],[1,0.5]];portConstraint=eastwest;fontSize=12;whiteSpace=wrap;html=1;" parent="4s1VpzhszTv433DMvUbN-12" vertex="1">
          <mxGeometry y="86" width="200" height="30" as="geometry" />
        </mxCell>
        <mxCell id="udTiI6Nx_Wms3bIItjeK-1" value="1. Создать Node (или Scope)&lt;br&gt;2. Добавить слова в коллекцию слов" style="text;html=1;strokeColor=#23445d;fillColor=#bac8d3;align=left;verticalAlign=top;whiteSpace=wrap;rounded=0;spacingLeft=10;" parent="1" vertex="1">
          <mxGeometry x="-180" y="180" width="440" height="200" as="geometry" />
        </mxCell>
        <mxCell id="vgImTTvwixshATDReW4f-1" value="Повторение через вопросы.&lt;br&gt;&lt;br&gt;" style="text;html=1;strokeColor=#23445d;fillColor=#bac8d3;align=left;verticalAlign=top;whiteSpace=wrap;rounded=0;spacingLeft=10;" parent="1" vertex="1">
          <mxGeometry x="660" y="130" width="440" height="200" as="geometry" />
        </mxCell>
        <mxCell id="vgImTTvwixshATDReW4f-4" style="edgeStyle=none;rounded=0;orthogonalLoop=1;jettySize=auto;html=1;exitX=1;exitY=0.5;exitDx=0;exitDy=0;entryX=0;entryY=0.5;entryDx=0;entryDy=0;" parent="1" source="vgImTTvwixshATDReW4f-2" target="vgImTTvwixshATDReW4f-3" edge="1">
          <mxGeometry relative="1" as="geometry" />
        </mxCell>
        <mxCell id="8dt0NSNXnALYjcV8lsNA-22" style="edgeStyle=none;rounded=0;orthogonalLoop=1;jettySize=auto;html=1;exitX=0.5;exitY=1;exitDx=0;exitDy=0;" parent="1" source="vgImTTvwixshATDReW4f-2" target="8dt0NSNXnALYjcV8lsNA-21" edge="1">
          <mxGeometry relative="1" as="geometry" />
        </mxCell>
        <mxCell id="vgImTTvwixshATDReW4f-2" value="Начинать будем с простого" style="text;html=1;strokeColor=#b85450;fillColor=#f8cecc;align=center;verticalAlign=middle;whiteSpace=wrap;rounded=0;" parent="1" vertex="1">
          <mxGeometry x="320" y="-1400" width="240" height="50" as="geometry" />
        </mxCell>
        <mxCell id="vgImTTvwixshATDReW4f-12" style="edgeStyle=none;rounded=0;orthogonalLoop=1;jettySize=auto;html=1;exitX=0.5;exitY=0;exitDx=0;exitDy=0;entryX=0.5;entryY=1;entryDx=0;entryDy=0;" parent="1" source="vgImTTvwixshATDReW4f-3" target="vgImTTvwixshATDReW4f-11" edge="1">
          <mxGeometry relative="1" as="geometry" />
        </mxCell>
        <mxCell id="vgImTTvwixshATDReW4f-3" value="Добавлять слова в мой личный словарь" style="text;html=1;strokeColor=#b85450;fillColor=#f8cecc;align=center;verticalAlign=middle;whiteSpace=wrap;rounded=0;" parent="1" vertex="1">
          <mxGeometry x="660" y="-1400" width="240" height="50" as="geometry" />
        </mxCell>
        <mxCell id="vgImTTvwixshATDReW4f-14" style="edgeStyle=none;rounded=0;orthogonalLoop=1;jettySize=auto;html=1;exitX=0.5;exitY=0;exitDx=0;exitDy=0;entryX=0.5;entryY=1;entryDx=0;entryDy=0;" parent="1" source="vgImTTvwixshATDReW4f-11" target="vgImTTvwixshATDReW4f-13" edge="1">
          <mxGeometry relative="1" as="geometry" />
        </mxCell>
        <mxCell id="vgImTTvwixshATDReW4f-11" value="Словарь имеет функцию группировки слов в узлы" style="text;html=1;strokeColor=#b85450;fillColor=#f8cecc;align=center;verticalAlign=middle;whiteSpace=wrap;rounded=0;" parent="1" vertex="1">
          <mxGeometry x="680" y="-1520" width="240" height="50" as="geometry" />
        </mxCell>
        <mxCell id="8dt0NSNXnALYjcV8lsNA-2" style="edgeStyle=none;rounded=0;orthogonalLoop=1;jettySize=auto;html=1;exitX=1;exitY=0.5;exitDx=0;exitDy=0;entryX=0;entryY=0.5;entryDx=0;entryDy=0;" parent="1" source="vgImTTvwixshATDReW4f-13" target="8dt0NSNXnALYjcV8lsNA-1" edge="1">
          <mxGeometry relative="1" as="geometry" />
        </mxCell>
        <mxCell id="vgImTTvwixshATDReW4f-13" value="Это позволит прорабатывать планомерно группу за группой" style="text;html=1;strokeColor=#b85450;fillColor=#f8cecc;align=center;verticalAlign=middle;whiteSpace=wrap;rounded=0;spacingLeft=10;" parent="1" vertex="1">
          <mxGeometry x="760" y="-1650" width="240" height="60" as="geometry" />
        </mxCell>
        <mxCell id="8dt0NSNXnALYjcV8lsNA-1" value="Функция группировки - отдельный механизм.&lt;br&gt;&lt;br&gt;Функция управления словарем; функция группировки слов в кучки" style="text;html=1;strokeColor=#b85450;fillColor=#f8cecc;align=center;verticalAlign=middle;whiteSpace=wrap;rounded=0;" parent="1" vertex="1">
          <mxGeometry x="1080" y="-1720" width="240" height="130" as="geometry" />
        </mxCell>
        <mxCell id="8dt0NSNXnALYjcV8lsNA-4" value="Question" style="swimlane;fontStyle=0;childLayout=stackLayout;horizontal=1;startSize=26;horizontalStack=0;resizeParent=1;resizeParentMax=0;resizeLast=0;collapsible=1;marginBottom=0;align=center;fontSize=14;" parent="1" vertex="1">
          <mxGeometry x="-805" y="-1480" width="160" height="86" as="geometry" />
        </mxCell>
        <mxCell id="8dt0NSNXnALYjcV8lsNA-5" value="id" style="text;strokeColor=none;fillColor=none;spacingLeft=4;spacingRight=4;overflow=hidden;rotatable=0;points=[[0,0.5],[1,0.5]];portConstraint=eastwest;fontSize=12;whiteSpace=wrap;html=1;" parent="8dt0NSNXnALYjcV8lsNA-4" vertex="1">
          <mxGeometry y="26" width="160" height="30" as="geometry" />
        </mxCell>
        <mxCell id="8dt0NSNXnALYjcV8lsNA-9" value="thoughtId" style="text;strokeColor=none;fillColor=none;spacingLeft=4;spacingRight=4;overflow=hidden;rotatable=0;points=[[0,0.5],[1,0.5]];portConstraint=eastwest;fontSize=12;whiteSpace=wrap;html=1;" parent="8dt0NSNXnALYjcV8lsNA-4" vertex="1">
          <mxGeometry y="56" width="160" height="30" as="geometry" />
        </mxCell>
        <mxCell id="8dt0NSNXnALYjcV8lsNA-10" value="Thought" style="swimlane;fontStyle=0;childLayout=stackLayout;horizontal=1;startSize=26;horizontalStack=0;resizeParent=1;resizeParentMax=0;resizeLast=0;collapsible=1;marginBottom=0;align=center;fontSize=14;" parent="1" vertex="1">
          <mxGeometry x="-565" y="-1460" width="200" height="146" as="geometry" />
        </mxCell>
        <mxCell id="8dt0NSNXnALYjcV8lsNA-11" value="id" style="text;strokeColor=none;fillColor=none;spacingLeft=4;spacingRight=4;overflow=hidden;rotatable=0;points=[[0,0.5],[1,0.5]];portConstraint=eastwest;fontSize=12;whiteSpace=wrap;html=1;" parent="8dt0NSNXnALYjcV8lsNA-10" vertex="1">
          <mxGeometry y="26" width="200" height="30" as="geometry" />
        </mxCell>
        <mxCell id="8dt0NSNXnALYjcV8lsNA-12" value="text" style="text;strokeColor=none;fillColor=none;spacingLeft=4;spacingRight=4;overflow=hidden;rotatable=0;points=[[0,0.5],[1,0.5]];portConstraint=eastwest;fontSize=12;whiteSpace=wrap;html=1;" parent="8dt0NSNXnALYjcV8lsNA-10" vertex="1">
          <mxGeometry y="56" width="200" height="30" as="geometry" />
        </mxCell>
        <mxCell id="SX9ZDHbQjP6ZxVtQqYe9-8" value="description" style="text;strokeColor=none;fillColor=none;spacingLeft=4;spacingRight=4;overflow=hidden;rotatable=0;points=[[0,0.5],[1,0.5]];portConstraint=eastwest;fontSize=12;whiteSpace=wrap;html=1;" parent="8dt0NSNXnALYjcV8lsNA-10" vertex="1">
          <mxGeometry y="86" width="200" height="30" as="geometry" />
        </mxCell>
        <mxCell id="8dt0NSNXnALYjcV8lsNA-13" value="lng" style="text;strokeColor=none;fillColor=none;spacingLeft=4;spacingRight=4;overflow=hidden;rotatable=0;points=[[0,0.5],[1,0.5]];portConstraint=eastwest;fontSize=12;whiteSpace=wrap;html=1;" parent="8dt0NSNXnALYjcV8lsNA-10" vertex="1">
          <mxGeometry y="116" width="200" height="30" as="geometry" />
        </mxCell>
        <mxCell id="8dt0NSNXnALYjcV8lsNA-15" value="" style="edgeStyle=entityRelationEdgeStyle;fontSize=12;html=1;endArrow=ERmandOne;rounded=0;exitX=0.991;exitY=0.653;exitDx=0;exitDy=0;exitPerimeter=0;entryX=-0.003;entryY=0.653;entryDx=0;entryDy=0;entryPerimeter=0;" parent="1" source="8dt0NSNXnALYjcV8lsNA-5" target="8dt0NSNXnALYjcV8lsNA-11" edge="1">
          <mxGeometry width="100" height="100" relative="1" as="geometry">
            <mxPoint x="-485" y="-1390" as="sourcePoint" />
            <mxPoint x="-385" y="-1490" as="targetPoint" />
          </mxGeometry>
        </mxCell>
        <mxCell id="8dt0NSNXnALYjcV8lsNA-16" value="ThoughtMeaning" style="swimlane;fontStyle=0;childLayout=stackLayout;horizontal=1;startSize=26;horizontalStack=0;resizeParent=1;resizeParentMax=0;resizeLast=0;collapsible=1;marginBottom=0;align=center;fontSize=14;" parent="1" vertex="1">
          <mxGeometry x="-245" y="-1460" width="200" height="116" as="geometry" />
        </mxCell>
        <mxCell id="8dt0NSNXnALYjcV8lsNA-17" value="id" style="text;strokeColor=none;fillColor=none;spacingLeft=4;spacingRight=4;overflow=hidden;rotatable=0;points=[[0,0.5],[1,0.5]];portConstraint=eastwest;fontSize=12;whiteSpace=wrap;html=1;" parent="8dt0NSNXnALYjcV8lsNA-16" vertex="1">
          <mxGeometry y="26" width="200" height="30" as="geometry" />
        </mxCell>
        <mxCell id="8dt0NSNXnALYjcV8lsNA-18" value="text" style="text;strokeColor=none;fillColor=none;spacingLeft=4;spacingRight=4;overflow=hidden;rotatable=0;points=[[0,0.5],[1,0.5]];portConstraint=eastwest;fontSize=12;whiteSpace=wrap;html=1;" parent="8dt0NSNXnALYjcV8lsNA-16" vertex="1">
          <mxGeometry y="56" width="200" height="30" as="geometry" />
        </mxCell>
        <mxCell id="8dt0NSNXnALYjcV8lsNA-19" value="lng" style="text;strokeColor=none;fillColor=none;spacingLeft=4;spacingRight=4;overflow=hidden;rotatable=0;points=[[0,0.5],[1,0.5]];portConstraint=eastwest;fontSize=12;whiteSpace=wrap;html=1;" parent="8dt0NSNXnALYjcV8lsNA-16" vertex="1">
          <mxGeometry y="86" width="200" height="30" as="geometry" />
        </mxCell>
        <mxCell id="8dt0NSNXnALYjcV8lsNA-20" value="" style="edgeStyle=entityRelationEdgeStyle;fontSize=12;html=1;endArrow=ERmany;rounded=0;exitX=1;exitY=0.5;exitDx=0;exitDy=0;" parent="1" source="8dt0NSNXnALYjcV8lsNA-12" target="8dt0NSNXnALYjcV8lsNA-16" edge="1">
          <mxGeometry width="100" height="100" relative="1" as="geometry">
            <mxPoint x="-415" y="-1370" as="sourcePoint" />
            <mxPoint x="-315" y="-1470" as="targetPoint" />
          </mxGeometry>
        </mxCell>
        <mxCell id="8dt0NSNXnALYjcV8lsNA-26" style="edgeStyle=none;rounded=0;orthogonalLoop=1;jettySize=auto;html=1;exitX=0.5;exitY=1;exitDx=0;exitDy=0;" parent="1" source="8dt0NSNXnALYjcV8lsNA-21" target="8dt0NSNXnALYjcV8lsNA-23" edge="1">
          <mxGeometry relative="1" as="geometry" />
        </mxCell>
        <mxCell id="8dt0NSNXnALYjcV8lsNA-28" style="edgeStyle=none;rounded=0;orthogonalLoop=1;jettySize=auto;html=1;exitX=0.25;exitY=1;exitDx=0;exitDy=0;" parent="1" source="8dt0NSNXnALYjcV8lsNA-21" target="8dt0NSNXnALYjcV8lsNA-27" edge="1">
          <mxGeometry relative="1" as="geometry" />
        </mxCell>
        <mxCell id="SX9ZDHbQjP6ZxVtQqYe9-5" style="edgeStyle=none;rounded=0;orthogonalLoop=1;jettySize=auto;html=1;exitX=0;exitY=0.5;exitDx=0;exitDy=0;" parent="1" source="8dt0NSNXnALYjcV8lsNA-21" target="SX9ZDHbQjP6ZxVtQqYe9-4" edge="1">
          <mxGeometry relative="1" as="geometry" />
        </mxCell>
        <mxCell id="8dt0NSNXnALYjcV8lsNA-21" value="Что я хочу" style="text;html=1;strokeColor=#d79b00;fillColor=#ffe6cc;align=center;verticalAlign=middle;whiteSpace=wrap;rounded=0;" parent="1" vertex="1">
          <mxGeometry x="320" y="-1320" width="240" height="50" as="geometry" />
        </mxCell>
        <mxCell id="8dt0NSNXnALYjcV8lsNA-25" style="edgeStyle=none;rounded=0;orthogonalLoop=1;jettySize=auto;html=1;exitX=1;exitY=0.5;exitDx=0;exitDy=0;" parent="1" source="8dt0NSNXnALYjcV8lsNA-23" target="8dt0NSNXnALYjcV8lsNA-24" edge="1">
          <mxGeometry relative="1" as="geometry" />
        </mxCell>
        <mxCell id="8dt0NSNXnALYjcV8lsNA-23" value="Знать как выразить мысль и запомнить это" style="text;html=1;strokeColor=#d79b00;fillColor=#ffe6cc;align=center;verticalAlign=middle;whiteSpace=wrap;rounded=0;" parent="1" vertex="1">
          <mxGeometry x="430" y="-1210" width="280" height="50" as="geometry" />
        </mxCell>
        <mxCell id="8dt0NSNXnALYjcV8lsNA-24" value="Повторение через вопросы" style="text;html=1;strokeColor=#d79b00;fillColor=#ffe6cc;align=center;verticalAlign=middle;whiteSpace=wrap;rounded=0;" parent="1" vertex="1">
          <mxGeometry x="780" y="-1210" width="240" height="50" as="geometry" />
        </mxCell>
        <mxCell id="8dt0NSNXnALYjcV8lsNA-30" style="edgeStyle=none;rounded=0;orthogonalLoop=1;jettySize=auto;html=1;exitX=0.5;exitY=1;exitDx=0;exitDy=0;" parent="1" source="8dt0NSNXnALYjcV8lsNA-27" target="8dt0NSNXnALYjcV8lsNA-29" edge="1">
          <mxGeometry relative="1" as="geometry" />
        </mxCell>
        <mxCell id="8dt0NSNXnALYjcV8lsNA-27" value="Разбирать текст" style="text;html=1;strokeColor=#d79b00;fillColor=#ffe6cc;align=center;verticalAlign=middle;whiteSpace=wrap;rounded=0;" parent="1" vertex="1">
          <mxGeometry x="240" y="-1210" width="140" height="50" as="geometry" />
        </mxCell>
        <mxCell id="8dt0NSNXnALYjcV8lsNA-29" value="Выписывать предложения" style="text;html=1;strokeColor=#d79b00;fillColor=#ffe6cc;align=center;verticalAlign=middle;whiteSpace=wrap;rounded=0;" parent="1" vertex="1">
          <mxGeometry x="200" y="-1120" width="140" height="50" as="geometry" />
        </mxCell>
        <mxCell id="SX9ZDHbQjP6ZxVtQqYe9-4" value="Придумать предложение с использованием слова" style="text;html=1;strokeColor=#d79b00;fillColor=#ffe6cc;align=center;verticalAlign=middle;whiteSpace=wrap;rounded=0;" parent="1" vertex="1">
          <mxGeometry x="20" y="-1270" width="180" height="50" as="geometry" />
        </mxCell>
        <mxCell id="SX9ZDHbQjP6ZxVtQqYe9-9" value="Thought" style="swimlane;fontStyle=0;childLayout=stackLayout;horizontal=1;startSize=26;horizontalStack=0;resizeParent=1;resizeParentMax=0;resizeLast=0;collapsible=1;marginBottom=0;align=center;fontSize=14;" parent="1" vertex="1">
          <mxGeometry x="-1040" y="-350" width="200" height="116" as="geometry" />
        </mxCell>
        <mxCell id="SX9ZDHbQjP6ZxVtQqYe9-10" value="id" style="text;strokeColor=none;fillColor=none;spacingLeft=4;spacingRight=4;overflow=hidden;rotatable=0;points=[[0,0.5],[1,0.5]];portConstraint=eastwest;fontSize=12;whiteSpace=wrap;html=1;" parent="SX9ZDHbQjP6ZxVtQqYe9-9" vertex="1">
          <mxGeometry y="26" width="200" height="30" as="geometry" />
        </mxCell>
        <mxCell id="SX9ZDHbQjP6ZxVtQqYe9-11" value="text" style="text;strokeColor=none;fillColor=none;spacingLeft=4;spacingRight=4;overflow=hidden;rotatable=0;points=[[0,0.5],[1,0.5]];portConstraint=eastwest;fontSize=12;whiteSpace=wrap;html=1;" parent="SX9ZDHbQjP6ZxVtQqYe9-9" vertex="1">
          <mxGeometry y="56" width="200" height="30" as="geometry" />
        </mxCell>
        <mxCell id="SX9ZDHbQjP6ZxVtQqYe9-12" value="description" style="text;strokeColor=none;fillColor=none;spacingLeft=4;spacingRight=4;overflow=hidden;rotatable=0;points=[[0,0.5],[1,0.5]];portConstraint=eastwest;fontSize=12;whiteSpace=wrap;html=1;" parent="SX9ZDHbQjP6ZxVtQqYe9-9" vertex="1">
          <mxGeometry y="86" width="200" height="30" as="geometry" />
        </mxCell>
        <mxCell id="SX9ZDHbQjP6ZxVtQqYe9-15" style="edgeStyle=none;rounded=0;orthogonalLoop=1;jettySize=auto;html=1;exitX=0.5;exitY=1;exitDx=0;exitDy=0;entryX=0.25;entryY=0;entryDx=0;entryDy=0;endArrow=halfCircle;endFill=0;" parent="1" source="SX9ZDHbQjP6ZxVtQqYe9-14" target="8dt0NSNXnALYjcV8lsNA-4" edge="1">
          <mxGeometry relative="1" as="geometry" />
        </mxCell>
        <mxCell id="SX9ZDHbQjP6ZxVtQqYe9-14" value="QuestionController" style="shape=process;whiteSpace=wrap;html=1;backgroundOutline=1;" parent="1" vertex="1">
          <mxGeometry x="-920" y="-1600" width="170" height="60" as="geometry" />
        </mxCell>
        <mxCell id="SX9ZDHbQjP6ZxVtQqYe9-16" value="Включает управление сессиями" style="text;html=1;strokeColor=none;fillColor=none;align=center;verticalAlign=middle;whiteSpace=wrap;rounded=0;" parent="1" vertex="1">
          <mxGeometry x="-890" y="-1635" width="140" height="30" as="geometry" />
        </mxCell>
        <mxCell id="SX9ZDHbQjP6ZxVtQqYe9-22" style="edgeStyle=none;rounded=0;orthogonalLoop=1;jettySize=auto;html=1;exitX=0.5;exitY=1;exitDx=0;exitDy=0;" parent="1" source="SX9ZDHbQjP6ZxVtQqYe9-17" target="SX9ZDHbQjP6ZxVtQqYe9-21" edge="1">
          <mxGeometry relative="1" as="geometry" />
        </mxCell>
        <mxCell id="SX9ZDHbQjP6ZxVtQqYe9-17" value="Мне удобно работать с единицей - мысль.&lt;br&gt;Предложение на русском, предложение на англ, турецком." style="text;html=1;strokeColor=#b85450;fillColor=#f8cecc;align=center;verticalAlign=middle;whiteSpace=wrap;rounded=0;" parent="1" vertex="1">
          <mxGeometry x="-600" y="-2000" width="320" height="70" as="geometry" />
        </mxCell>
        <mxCell id="SX9ZDHbQjP6ZxVtQqYe9-21" value="А слова в словаре могут быть связанны с разными мыслями" style="text;html=1;strokeColor=#b85450;fillColor=#f8cecc;align=center;verticalAlign=middle;whiteSpace=wrap;rounded=0;" parent="1" vertex="1">
          <mxGeometry x="-560" y="-1880" width="320" height="60" as="geometry" />
        </mxCell>
        <mxCell id="SX9ZDHbQjP6ZxVtQqYe9-25" value="" style="group" parent="1" vertex="1" connectable="0">
          <mxGeometry x="520" y="-1070" width="520" height="250" as="geometry" />
        </mxCell>
        <mxCell id="SX9ZDHbQjP6ZxVtQqYe9-6" value="1. Складывать в кучу составленные мной предложений&lt;br&gt;2. Складывать в кучу слова, которые я намерен лично отрабатывать&lt;br&gt;3. Проходить повторение через вопросы (квест)&lt;br&gt;4. Складывать в кучу придуманные мной рассказы (с отметкой, что прошел устное изложение 5 раз)&lt;br&gt;5. Складывать в кучу тексты для разбора&lt;br&gt;&lt;hr&gt;6. Создавать Node, который имеет:&lt;br&gt;- коллекцию ссылок на слова (список слов)&lt;br&gt;- коллекцию предложений&lt;br&gt;" style="text;html=1;strokeColor=#23445d;fillColor=#bac8d3;align=left;verticalAlign=top;whiteSpace=wrap;rounded=0;spacingLeft=10;spacingRight=10;" parent="SX9ZDHbQjP6ZxVtQqYe9-25" vertex="1">
          <mxGeometry y="55.55555555555556" width="519.9999999999999" height="194.44444444444446" as="geometry" />
        </mxCell>
        <mxCell id="SX9ZDHbQjP6ZxVtQqYe9-24" value="ЗАДАЧА" style="rounded=1;whiteSpace=wrap;html=1;fontSize=48;" parent="SX9ZDHbQjP6ZxVtQqYe9-25" vertex="1">
          <mxGeometry width="244.70588235294113" height="55.55555555555556" as="geometry" />
        </mxCell>
        <mxCell id="SX9ZDHbQjP6ZxVtQqYe9-58" style="edgeStyle=none;rounded=0;orthogonalLoop=1;jettySize=auto;html=1;exitX=1;exitY=0.5;exitDx=0;exitDy=0;" parent="1" source="SX9ZDHbQjP6ZxVtQqYe9-26" target="SX9ZDHbQjP6ZxVtQqYe9-57" edge="1">
          <mxGeometry relative="1" as="geometry" />
        </mxCell>
        <mxCell id="SX9ZDHbQjP6ZxVtQqYe9-26" value="При создании предложения, на самом деле создается невидимый узел Thought, что означает добавить мысль.&lt;br&gt;&lt;br&gt;Потом к этомй объекту можно добавлять выражения этой мысли.&lt;br&gt;&lt;br&gt;Это решение удобнее представить и для построения предложений и для повторения чсерез вопросы" style="text;html=1;strokeColor=#b85450;fillColor=#f8cecc;align=left;verticalAlign=top;whiteSpace=wrap;rounded=0;spacingLeft=10;spacingRight=10;" parent="1" vertex="1">
          <mxGeometry x="-1320" y="-760" width="460" height="150" as="geometry" />
        </mxCell>
        <mxCell id="SX9ZDHbQjP6ZxVtQqYe9-27" value="ThoughtRef" style="swimlane;fontStyle=0;childLayout=stackLayout;horizontal=1;startSize=26;horizontalStack=0;resizeParent=1;resizeParentMax=0;resizeLast=0;collapsible=1;marginBottom=0;align=center;fontSize=14;" parent="1" vertex="1">
          <mxGeometry x="100" y="-190" width="200" height="86" as="geometry" />
        </mxCell>
        <mxCell id="SX9ZDHbQjP6ZxVtQqYe9-28" value="id1" style="text;strokeColor=none;fillColor=none;spacingLeft=4;spacingRight=4;overflow=hidden;rotatable=0;points=[[0,0.5],[1,0.5]];portConstraint=eastwest;fontSize=12;whiteSpace=wrap;html=1;" parent="SX9ZDHbQjP6ZxVtQqYe9-27" vertex="1">
          <mxGeometry y="26" width="200" height="30" as="geometry" />
        </mxCell>
        <mxCell id="SX9ZDHbQjP6ZxVtQqYe9-29" value="id2" style="text;strokeColor=none;fillColor=none;spacingLeft=4;spacingRight=4;overflow=hidden;rotatable=0;points=[[0,0.5],[1,0.5]];portConstraint=eastwest;fontSize=12;whiteSpace=wrap;html=1;" parent="SX9ZDHbQjP6ZxVtQqYe9-27" vertex="1">
          <mxGeometry y="56" width="200" height="30" as="geometry" />
        </mxCell>
        <mxCell id="SX9ZDHbQjP6ZxVtQqYe9-33" value="Thought" style="ellipse;whiteSpace=wrap;html=1;aspect=fixed;" parent="1" vertex="1">
          <mxGeometry x="-1940" y="-550" width="80" height="80" as="geometry" />
        </mxCell>
        <mxCell id="SX9ZDHbQjP6ZxVtQqYe9-34" value="Expression A" style="rounded=0;whiteSpace=wrap;html=1;" parent="1" vertex="1">
          <mxGeometry x="-1820" y="-630" width="280" height="40" as="geometry" />
        </mxCell>
        <mxCell id="SX9ZDHbQjP6ZxVtQqYe9-35" value="Expression B" style="rounded=0;whiteSpace=wrap;html=1;" parent="1" vertex="1">
          <mxGeometry x="-1820" y="-540" width="280" height="40" as="geometry" />
        </mxCell>
        <mxCell id="SX9ZDHbQjP6ZxVtQqYe9-36" value="Expression C" style="rounded=0;whiteSpace=wrap;html=1;" parent="1" vertex="1">
          <mxGeometry x="-1820" y="-470" width="280" height="40" as="geometry" />
        </mxCell>
        <mxCell id="SX9ZDHbQjP6ZxVtQqYe9-37" value="Expression" style="swimlane;fontStyle=0;childLayout=stackLayout;horizontal=1;startSize=26;horizontalStack=0;resizeParent=1;resizeParentMax=0;resizeLast=0;collapsible=1;marginBottom=0;align=center;fontSize=14;" parent="1" vertex="1">
          <mxGeometry x="-760" y="-350" width="200" height="146" as="geometry" />
        </mxCell>
        <mxCell id="SX9ZDHbQjP6ZxVtQqYe9-38" value="id" style="text;strokeColor=none;fillColor=none;spacingLeft=4;spacingRight=4;overflow=hidden;rotatable=0;points=[[0,0.5],[1,0.5]];portConstraint=eastwest;fontSize=12;whiteSpace=wrap;html=1;" parent="SX9ZDHbQjP6ZxVtQqYe9-37" vertex="1">
          <mxGeometry y="26" width="200" height="30" as="geometry" />
        </mxCell>
        <mxCell id="SX9ZDHbQjP6ZxVtQqYe9-39" value="text" style="text;strokeColor=none;fillColor=none;spacingLeft=4;spacingRight=4;overflow=hidden;rotatable=0;points=[[0,0.5],[1,0.5]];portConstraint=eastwest;fontSize=12;whiteSpace=wrap;html=1;" parent="SX9ZDHbQjP6ZxVtQqYe9-37" vertex="1">
          <mxGeometry y="56" width="200" height="30" as="geometry" />
        </mxCell>
        <mxCell id="SX9ZDHbQjP6ZxVtQqYe9-40" value="description" style="text;strokeColor=none;fillColor=none;spacingLeft=4;spacingRight=4;overflow=hidden;rotatable=0;points=[[0,0.5],[1,0.5]];portConstraint=eastwest;fontSize=12;whiteSpace=wrap;html=1;" parent="SX9ZDHbQjP6ZxVtQqYe9-37" vertex="1">
          <mxGeometry y="86" width="200" height="30" as="geometry" />
        </mxCell>
        <mxCell id="SX9ZDHbQjP6ZxVtQqYe9-41" value="lng" style="text;strokeColor=none;fillColor=none;spacingLeft=4;spacingRight=4;overflow=hidden;rotatable=0;points=[[0,0.5],[1,0.5]];portConstraint=eastwest;fontSize=12;whiteSpace=wrap;html=1;" parent="SX9ZDHbQjP6ZxVtQqYe9-37" vertex="1">
          <mxGeometry y="116" width="200" height="30" as="geometry" />
        </mxCell>
        <mxCell id="SX9ZDHbQjP6ZxVtQqYe9-42" value="" style="edgeStyle=entityRelationEdgeStyle;fontSize=12;html=1;endArrow=ERmany;rounded=0;" parent="1" source="SX9ZDHbQjP6ZxVtQqYe9-9" target="SX9ZDHbQjP6ZxVtQqYe9-37" edge="1">
          <mxGeometry width="100" height="100" relative="1" as="geometry">
            <mxPoint x="-790" y="-250" as="sourcePoint" />
            <mxPoint x="-690" y="-350" as="targetPoint" />
          </mxGeometry>
        </mxCell>
        <mxCell id="SX9ZDHbQjP6ZxVtQqYe9-43" value="Question" style="swimlane;fontStyle=0;childLayout=stackLayout;horizontal=1;startSize=26;horizontalStack=0;resizeParent=1;resizeParentMax=0;resizeLast=0;collapsible=1;marginBottom=0;align=center;fontSize=14;" parent="1" vertex="1">
          <mxGeometry x="-1290" y="-234" width="160" height="86" as="geometry" />
        </mxCell>
        <mxCell id="SX9ZDHbQjP6ZxVtQqYe9-44" value="id" style="text;strokeColor=none;fillColor=none;spacingLeft=4;spacingRight=4;overflow=hidden;rotatable=0;points=[[0,0.5],[1,0.5]];portConstraint=eastwest;fontSize=12;whiteSpace=wrap;html=1;" parent="SX9ZDHbQjP6ZxVtQqYe9-43" vertex="1">
          <mxGeometry y="26" width="160" height="30" as="geometry" />
        </mxCell>
        <mxCell id="SX9ZDHbQjP6ZxVtQqYe9-45" value="thoughtId" style="text;strokeColor=none;fillColor=none;spacingLeft=4;spacingRight=4;overflow=hidden;rotatable=0;points=[[0,0.5],[1,0.5]];portConstraint=eastwest;fontSize=12;whiteSpace=wrap;html=1;" parent="SX9ZDHbQjP6ZxVtQqYe9-43" vertex="1">
          <mxGeometry y="56" width="160" height="30" as="geometry" />
        </mxCell>
        <mxCell id="SX9ZDHbQjP6ZxVtQqYe9-46" value="Node" style="rounded=1;whiteSpace=wrap;html=1;" parent="1" vertex="1">
          <mxGeometry x="-1320" y="-350" width="120" height="60" as="geometry" />
        </mxCell>
        <mxCell id="SX9ZDHbQjP6ZxVtQqYe9-48" value="" style="edgeStyle=entityRelationEdgeStyle;fontSize=12;html=1;endArrow=ERmany;rounded=0;" parent="1" source="SX9ZDHbQjP6ZxVtQqYe9-46" target="SX9ZDHbQjP6ZxVtQqYe9-9" edge="1">
          <mxGeometry width="100" height="100" relative="1" as="geometry">
            <mxPoint x="-1170" y="-280" as="sourcePoint" />
            <mxPoint x="-1070" y="-380" as="targetPoint" />
          </mxGeometry>
        </mxCell>
        <mxCell id="SX9ZDHbQjP6ZxVtQqYe9-50" value="" style="fontSize=12;html=1;endArrow=ERmany;rounded=0;" parent="1" source="SX9ZDHbQjP6ZxVtQqYe9-46" target="SX9ZDHbQjP6ZxVtQqYe9-43" edge="1">
          <mxGeometry width="100" height="100" relative="1" as="geometry">
            <mxPoint x="-1110" y="-270" as="sourcePoint" />
            <mxPoint x="-1010" y="-370" as="targetPoint" />
          </mxGeometry>
        </mxCell>
        <mxCell id="SX9ZDHbQjP6ZxVtQqYe9-51" value="Quest" style="shape=hexagon;perimeter=hexagonPerimeter2;whiteSpace=wrap;html=1;fixedSize=1;" parent="1" vertex="1">
          <mxGeometry x="-2150" y="-560" width="120" height="80" as="geometry" />
        </mxCell>
        <mxCell id="SX9ZDHbQjP6ZxVtQqYe9-53" value="" style="edgeStyle=entityRelationEdgeStyle;fontSize=12;html=1;endArrow=ERmandOne;rounded=0;" parent="1" source="SX9ZDHbQjP6ZxVtQqYe9-51" target="SX9ZDHbQjP6ZxVtQqYe9-33" edge="1">
          <mxGeometry width="100" height="100" relative="1" as="geometry">
            <mxPoint x="-1870" y="-440" as="sourcePoint" />
            <mxPoint x="-1770" y="-540" as="targetPoint" />
          </mxGeometry>
        </mxCell>
        <mxCell id="SX9ZDHbQjP6ZxVtQqYe9-54" value="" style="endArrow=classic;html=1;rounded=0;entryX=0.001;entryY=0.4;entryDx=0;entryDy=0;entryPerimeter=0;" parent="1" source="SX9ZDHbQjP6ZxVtQqYe9-33" target="SX9ZDHbQjP6ZxVtQqYe9-34" edge="1">
          <mxGeometry width="50" height="50" relative="1" as="geometry">
            <mxPoint x="-1850" y="-460" as="sourcePoint" />
            <mxPoint x="-1800" y="-510" as="targetPoint" />
          </mxGeometry>
        </mxCell>
        <mxCell id="SX9ZDHbQjP6ZxVtQqYe9-55" value="" style="endArrow=classic;html=1;rounded=0;entryX=-0.004;entryY=0.414;entryDx=0;entryDy=0;entryPerimeter=0;" parent="1" source="SX9ZDHbQjP6ZxVtQqYe9-33" target="SX9ZDHbQjP6ZxVtQqYe9-35" edge="1">
          <mxGeometry width="50" height="50" relative="1" as="geometry">
            <mxPoint x="-1850" y="-460" as="sourcePoint" />
            <mxPoint x="-1800" y="-510" as="targetPoint" />
          </mxGeometry>
        </mxCell>
        <mxCell id="SX9ZDHbQjP6ZxVtQqYe9-56" value="" style="endArrow=classic;html=1;rounded=0;entryX=0.007;entryY=0.4;entryDx=0;entryDy=0;entryPerimeter=0;" parent="1" source="SX9ZDHbQjP6ZxVtQqYe9-33" target="SX9ZDHbQjP6ZxVtQqYe9-36" edge="1">
          <mxGeometry width="50" height="50" relative="1" as="geometry">
            <mxPoint x="-1850" y="-460" as="sourcePoint" />
            <mxPoint x="-1800" y="-510" as="targetPoint" />
          </mxGeometry>
        </mxCell>
        <mxCell id="SX9ZDHbQjP6ZxVtQqYe9-60" style="edgeStyle=none;rounded=0;orthogonalLoop=1;jettySize=auto;html=1;exitX=1;exitY=0.5;exitDx=0;exitDy=0;" parent="1" source="SX9ZDHbQjP6ZxVtQqYe9-57" target="SX9ZDHbQjP6ZxVtQqYe9-59" edge="1">
          <mxGeometry relative="1" as="geometry" />
        </mxCell>
        <mxCell id="SX9ZDHbQjP6ZxVtQqYe9-57" value="Для отработки слов&lt;br&gt;&lt;br&gt;Личный словарь слов нужен.&lt;br&gt;Но предложения для тренировки этого слова - отдельная сущность.&lt;br&gt;Эти объекты специально отдельно для тренировки применения слова.&lt;br&gt;&lt;br&gt;С другой стороны, &quot;слово&quot; может быт связанно с thought.&lt;br&gt;&lt;br&gt;Но лучше отдельный отдел: слово - предложение&lt;br&gt;+ на слово можно создать несколько предложений.&lt;br&gt;- предложение имеет признак языка, поэтому тоже можно тестировать повторение" style="text;html=1;strokeColor=#b85450;fillColor=#f8cecc;align=left;verticalAlign=top;whiteSpace=wrap;rounded=0;spacingLeft=10;spacingRight=10;" parent="1" vertex="1">
          <mxGeometry x="-800" y="-720" width="460" height="210" as="geometry" />
        </mxCell>
        <mxCell id="SX9ZDHbQjP6ZxVtQqYe9-62" style="edgeStyle=none;rounded=0;orthogonalLoop=1;jettySize=auto;html=1;exitX=1;exitY=0.5;exitDx=0;exitDy=0;" parent="1" source="SX9ZDHbQjP6ZxVtQqYe9-59" target="SX9ZDHbQjP6ZxVtQqYe9-61" edge="1">
          <mxGeometry relative="1" as="geometry" />
        </mxCell>
        <mxCell id="SX9ZDHbQjP6ZxVtQqYe9-59" value="Для слова своя страница:&lt;br&gt;&lt;br&gt;+ описание слова&lt;br&gt;+ коллекция примеров&lt;br&gt;+ коллекция придуманных предложений&lt;br&gt;&lt;br&gt;Из этого тоже можно рисовать статистику" style="text;html=1;strokeColor=#b85450;fillColor=#f8cecc;align=left;verticalAlign=top;whiteSpace=wrap;rounded=0;spacingLeft=10;spacingRight=10;" parent="1" vertex="1">
          <mxGeometry x="-280" y="-720" width="460" height="210" as="geometry" />
        </mxCell>
        <mxCell id="SX9ZDHbQjP6ZxVtQqYe9-61" value="Разбор текста&lt;br&gt;&lt;br&gt;Node имеет:&lt;br&gt;+ объект текст&lt;br&gt;+ объекты вопросы, сгруппированные&lt;br&gt;+ слова (выделенные из текста)" style="text;html=1;strokeColor=#b85450;fillColor=#f8cecc;align=left;verticalAlign=top;whiteSpace=wrap;rounded=0;spacingLeft=10;spacingRight=10;" parent="1" vertex="1">
          <mxGeometry x="240" y="-720" width="460" height="210" as="geometry" />
        </mxCell>
        <mxCell id="xOtMHB2p2PVpoYeKLJK4-1" value="Thought" style="ellipse;whiteSpace=wrap;html=1;aspect=fixed;" parent="1" vertex="1">
          <mxGeometry x="-2040" y="-70" width="80" height="80" as="geometry" />
        </mxCell>
        <mxCell id="xOtMHB2p2PVpoYeKLJK4-2" value="Expression A" style="rounded=0;whiteSpace=wrap;html=1;" parent="1" vertex="1">
          <mxGeometry x="-1920" y="-150" width="280" height="40" as="geometry" />
        </mxCell>
        <mxCell id="xOtMHB2p2PVpoYeKLJK4-3" value="Expression B" style="rounded=0;whiteSpace=wrap;html=1;" parent="1" vertex="1">
          <mxGeometry x="-1920" y="-60" width="280" height="40" as="geometry" />
        </mxCell>
        <mxCell id="xOtMHB2p2PVpoYeKLJK4-4" value="Expression C" style="rounded=0;whiteSpace=wrap;html=1;" parent="1" vertex="1">
          <mxGeometry x="-1920" y="10" width="280" height="40" as="geometry" />
        </mxCell>
        <mxCell id="xOtMHB2p2PVpoYeKLJK4-5" value="Quest" style="shape=hexagon;perimeter=hexagonPerimeter2;whiteSpace=wrap;html=1;fixedSize=1;" parent="1" vertex="1">
          <mxGeometry x="-2310" y="-30" width="120" height="80" as="geometry" />
        </mxCell>
        <mxCell id="xOtMHB2p2PVpoYeKLJK4-7" value="" style="endArrow=classic;html=1;rounded=0;entryX=0.001;entryY=0.4;entryDx=0;entryDy=0;entryPerimeter=0;" parent="1" source="xOtMHB2p2PVpoYeKLJK4-1" target="xOtMHB2p2PVpoYeKLJK4-2" edge="1">
          <mxGeometry width="50" height="50" relative="1" as="geometry">
            <mxPoint x="-1950" y="20" as="sourcePoint" />
            <mxPoint x="-1900" y="-30" as="targetPoint" />
          </mxGeometry>
        </mxCell>
        <mxCell id="xOtMHB2p2PVpoYeKLJK4-8" value="" style="endArrow=classic;html=1;rounded=0;entryX=-0.004;entryY=0.414;entryDx=0;entryDy=0;entryPerimeter=0;" parent="1" source="xOtMHB2p2PVpoYeKLJK4-1" target="xOtMHB2p2PVpoYeKLJK4-3" edge="1">
          <mxGeometry width="50" height="50" relative="1" as="geometry">
            <mxPoint x="-1950" y="20" as="sourcePoint" />
            <mxPoint x="-1900" y="-30" as="targetPoint" />
          </mxGeometry>
        </mxCell>
        <mxCell id="xOtMHB2p2PVpoYeKLJK4-9" value="" style="endArrow=classic;html=1;rounded=0;entryX=0.007;entryY=0.4;entryDx=0;entryDy=0;entryPerimeter=0;" parent="1" source="xOtMHB2p2PVpoYeKLJK4-1" target="xOtMHB2p2PVpoYeKLJK4-4" edge="1">
          <mxGeometry width="50" height="50" relative="1" as="geometry">
            <mxPoint x="-1950" y="20" as="sourcePoint" />
            <mxPoint x="-1900" y="-30" as="targetPoint" />
          </mxGeometry>
        </mxCell>
        <mxCell id="xOtMHB2p2PVpoYeKLJK4-10" value="Вариант 2" style="text;html=1;strokeColor=none;fillColor=none;align=center;verticalAlign=middle;whiteSpace=wrap;rounded=0;" parent="1" vertex="1">
          <mxGeometry x="-2020" y="-220" width="60" height="30" as="geometry" />
        </mxCell>
        <mxCell id="xOtMHB2p2PVpoYeKLJK4-11" value="Вариант 1" style="text;html=1;strokeColor=none;fillColor=none;align=center;verticalAlign=middle;whiteSpace=wrap;rounded=0;" parent="1" vertex="1">
          <mxGeometry x="-1860" y="-670" width="60" height="30" as="geometry" />
        </mxCell>
        <mxCell id="xOtMHB2p2PVpoYeKLJK4-13" value="Thought" style="ellipse;whiteSpace=wrap;html=1;aspect=fixed;" parent="1" vertex="1">
          <mxGeometry x="-2090" y="230" width="80" height="80" as="geometry" />
        </mxCell>
        <mxCell id="xOtMHB2p2PVpoYeKLJK4-14" value="Expression A" style="rounded=0;whiteSpace=wrap;html=1;" parent="1" vertex="1">
          <mxGeometry x="-1970" y="150" width="280" height="40" as="geometry" />
        </mxCell>
        <mxCell id="xOtMHB2p2PVpoYeKLJK4-15" value="Expression B" style="rounded=0;whiteSpace=wrap;html=1;" parent="1" vertex="1">
          <mxGeometry x="-1970" y="240" width="280" height="40" as="geometry" />
        </mxCell>
        <mxCell id="xOtMHB2p2PVpoYeKLJK4-16" value="Expression C" style="rounded=0;whiteSpace=wrap;html=1;" parent="1" vertex="1">
          <mxGeometry x="-1970" y="310" width="280" height="40" as="geometry" />
        </mxCell>
        <mxCell id="xOtMHB2p2PVpoYeKLJK4-17" value="" style="endArrow=classic;html=1;rounded=0;entryX=0.001;entryY=0.4;entryDx=0;entryDy=0;entryPerimeter=0;" parent="1" source="xOtMHB2p2PVpoYeKLJK4-13" target="xOtMHB2p2PVpoYeKLJK4-14" edge="1">
          <mxGeometry width="50" height="50" relative="1" as="geometry">
            <mxPoint x="-2000" y="320" as="sourcePoint" />
            <mxPoint x="-1950" y="270" as="targetPoint" />
          </mxGeometry>
        </mxCell>
        <mxCell id="xOtMHB2p2PVpoYeKLJK4-18" value="" style="endArrow=classic;html=1;rounded=0;entryX=-0.004;entryY=0.414;entryDx=0;entryDy=0;entryPerimeter=0;" parent="1" source="xOtMHB2p2PVpoYeKLJK4-13" target="xOtMHB2p2PVpoYeKLJK4-15" edge="1">
          <mxGeometry width="50" height="50" relative="1" as="geometry">
            <mxPoint x="-2000" y="320" as="sourcePoint" />
            <mxPoint x="-1950" y="270" as="targetPoint" />
          </mxGeometry>
        </mxCell>
        <mxCell id="xOtMHB2p2PVpoYeKLJK4-19" value="" style="endArrow=classic;html=1;rounded=0;entryX=0.007;entryY=0.4;entryDx=0;entryDy=0;entryPerimeter=0;" parent="1" source="xOtMHB2p2PVpoYeKLJK4-13" target="xOtMHB2p2PVpoYeKLJK4-16" edge="1">
          <mxGeometry width="50" height="50" relative="1" as="geometry">
            <mxPoint x="-2000" y="320" as="sourcePoint" />
            <mxPoint x="-1950" y="270" as="targetPoint" />
          </mxGeometry>
        </mxCell>
        <mxCell id="xOtMHB2p2PVpoYeKLJK4-20" value="" style="endArrow=classic;html=1;rounded=0;" parent="1" source="xOtMHB2p2PVpoYeKLJK4-5" target="xOtMHB2p2PVpoYeKLJK4-1" edge="1">
          <mxGeometry width="50" height="50" relative="1" as="geometry">
            <mxPoint x="-1860" y="30" as="sourcePoint" />
            <mxPoint x="-1810" y="-20" as="targetPoint" />
          </mxGeometry>
        </mxCell>
        <mxCell id="xOtMHB2p2PVpoYeKLJK4-21" value="" style="endArrow=classic;html=1;rounded=0;" parent="1" source="xOtMHB2p2PVpoYeKLJK4-5" target="xOtMHB2p2PVpoYeKLJK4-13" edge="1">
          <mxGeometry width="50" height="50" relative="1" as="geometry">
            <mxPoint x="-1860" y="30" as="sourcePoint" />
            <mxPoint x="-1810" y="-20" as="targetPoint" />
          </mxGeometry>
        </mxCell>
        <mxCell id="xOtMHB2p2PVpoYeKLJK4-24" style="edgeStyle=none;rounded=0;orthogonalLoop=1;jettySize=auto;html=1;exitX=0.5;exitY=1;exitDx=0;exitDy=0;" parent="1" source="xOtMHB2p2PVpoYeKLJK4-22" target="xOtMHB2p2PVpoYeKLJK4-23" edge="1">
          <mxGeometry relative="1" as="geometry" />
        </mxCell>
        <mxCell id="xOtMHB2p2PVpoYeKLJK4-22" value="Объект Quest должен быть логически самостоятельным" style="text;html=1;strokeColor=none;fillColor=none;align=center;verticalAlign=middle;whiteSpace=wrap;rounded=0;" parent="1" vertex="1">
          <mxGeometry x="-2440" y="400" width="230" height="50" as="geometry" />
        </mxCell>
        <mxCell id="xOtMHB2p2PVpoYeKLJK4-23" value="+ добавить thought&lt;br&gt;+ коллекция thought&lt;br&gt;+&amp;nbsp;" style="text;html=1;strokeColor=none;fillColor=none;align=left;verticalAlign=top;whiteSpace=wrap;rounded=0;" parent="1" vertex="1">
          <mxGeometry x="-2355" y="480" width="230" height="100" as="geometry" />
        </mxCell>
        <mxCell id="xOtMHB2p2PVpoYeKLJK4-25" value="Страница Terrains" style="rounded=0;whiteSpace=wrap;html=1;" parent="1" vertex="1">
          <mxGeometry x="-3280" y="-880" width="280" height="60" as="geometry" />
        </mxCell>
        <mxCell id="xOtMHB2p2PVpoYeKLJK4-26" value="Страница Terrain" style="rounded=0;whiteSpace=wrap;html=1;" parent="1" vertex="1">
          <mxGeometry x="-2960" y="-880" width="280" height="60" as="geometry" />
        </mxCell>
        <mxCell id="xOtMHB2p2PVpoYeKLJK4-27" value="Коллекция Node" style="rounded=0;whiteSpace=wrap;html=1;" parent="1" vertex="1">
          <mxGeometry x="-2960" y="-820" width="280" height="60" as="geometry" />
        </mxCell>
        <mxCell id="xOtMHB2p2PVpoYeKLJK4-28" value="Коллекция Terrain" style="rounded=0;whiteSpace=wrap;html=1;" parent="1" vertex="1">
          <mxGeometry x="-3280" y="-820" width="280" height="60" as="geometry" />
        </mxCell>
        <mxCell id="xOtMHB2p2PVpoYeKLJK4-29" value="Страница Node" style="rounded=0;whiteSpace=wrap;html=1;" parent="1" vertex="1">
          <mxGeometry x="-2640" y="-880" width="280" height="60" as="geometry" />
        </mxCell>
        <mxCell id="xOtMHB2p2PVpoYeKLJK4-30" value="Коллекция Quest" style="rounded=0;whiteSpace=wrap;html=1;" parent="1" vertex="1">
          <mxGeometry x="-2640" y="-820" width="280" height="60" as="geometry" />
        </mxCell>
        <mxCell id="xOtMHB2p2PVpoYeKLJK4-34" value="&lt;b&gt;&lt;font style=&quot;font-size: 38px;&quot;&gt;Главная цель идеи:&lt;/font&gt;&lt;br&gt;&lt;/b&gt;&lt;br&gt;- хранить коллекцию слов, словосочетаний и выражений мысли чтобы это повторять и запомнить;&lt;br&gt;&lt;br&gt;- проходить вопросы&lt;br&gt;&lt;br&gt;- сочинять рассказы&lt;br&gt;&lt;br&gt;- все идет в группы, которые представляют объекты, по которым можно отрисовывать прогресс" style="text;html=1;strokeColor=#b85450;fillColor=#f8cecc;align=left;verticalAlign=top;whiteSpace=wrap;rounded=0;spacingLeft=10;spacingRight=10;fontSize=24;" parent="1" vertex="1">
          <mxGeometry x="-2230" y="-1960" width="680" height="360" as="geometry" />
        </mxCell>
        <mxCell id="PrR9rzvyte8IZNgfIQxr-3" style="edgeStyle=none;rounded=0;orthogonalLoop=1;jettySize=auto;html=1;exitX=0.5;exitY=1;exitDx=0;exitDy=0;" parent="1" source="PrR9rzvyte8IZNgfIQxr-1" target="PrR9rzvyte8IZNgfIQxr-2" edge="1">
          <mxGeometry relative="1" as="geometry" />
        </mxCell>
        <mxCell id="PrR9rzvyte8IZNgfIQxr-1" value="Почему lexem не может быть по аналогии, или тем же, что и thought?&lt;br style=&quot;font-size: 18px;&quot;&gt;&lt;br&gt;По сути это тоже &quot;понятие&quot; со значениями&lt;br&gt;" style="text;html=1;strokeColor=#b85450;fillColor=#f8cecc;align=left;verticalAlign=top;whiteSpace=wrap;rounded=0;fontSize=18;" parent="1" vertex="1">
          <mxGeometry x="-2230" y="-1535" width="445" height="115" as="geometry" />
        </mxCell>
        <mxCell id="PrR9rzvyte8IZNgfIQxr-2" value="Одно отличие - добавить тип thought:&lt;br&gt;&lt;br&gt;- chunk (кусок - слово или словосочетание)&lt;br&gt;- expression (полная мысль, предложение)" style="text;html=1;strokeColor=#b85450;fillColor=#f8cecc;align=left;verticalAlign=top;whiteSpace=wrap;rounded=0;fontSize=18;" parent="1" vertex="1">
          <mxGeometry x="-2125" y="-1360" width="445" height="115" as="geometry" />
        </mxCell>
        <mxCell id="6uuv5_UHNS2Th5qs2Wvp-3" style="edgeStyle=none;rounded=0;orthogonalLoop=1;jettySize=auto;html=1;" parent="1" source="6uuv5_UHNS2Th5qs2Wvp-1" target="6uuv5_UHNS2Th5qs2Wvp-2" edge="1">
          <mxGeometry relative="1" as="geometry" />
        </mxCell>
        <mxCell id="6uuv5_UHNS2Th5qs2Wvp-6" style="edgeStyle=none;rounded=0;orthogonalLoop=1;jettySize=auto;html=1;" parent="1" source="6uuv5_UHNS2Th5qs2Wvp-1" target="6uuv5_UHNS2Th5qs2Wvp-4" edge="1">
          <mxGeometry relative="1" as="geometry" />
        </mxCell>
        <mxCell id="6uuv5_UHNS2Th5qs2Wvp-7" style="edgeStyle=none;rounded=0;orthogonalLoop=1;jettySize=auto;html=1;" parent="1" source="6uuv5_UHNS2Th5qs2Wvp-1" target="6uuv5_UHNS2Th5qs2Wvp-5" edge="1">
          <mxGeometry relative="1" as="geometry" />
        </mxCell>
        <mxCell id="6uuv5_UHNS2Th5qs2Wvp-9" style="edgeStyle=none;rounded=0;orthogonalLoop=1;jettySize=auto;html=1;" parent="1" source="6uuv5_UHNS2Th5qs2Wvp-1" target="6uuv5_UHNS2Th5qs2Wvp-8" edge="1">
          <mxGeometry relative="1" as="geometry" />
        </mxCell>
        <mxCell id="6uuv5_UHNS2Th5qs2Wvp-11" style="edgeStyle=none;rounded=0;orthogonalLoop=1;jettySize=auto;html=1;" parent="1" source="6uuv5_UHNS2Th5qs2Wvp-1" target="6uuv5_UHNS2Th5qs2Wvp-10" edge="1">
          <mxGeometry relative="1" as="geometry" />
        </mxCell>
        <mxCell id="6uuv5_UHNS2Th5qs2Wvp-13" style="edgeStyle=none;rounded=0;orthogonalLoop=1;jettySize=auto;html=1;" parent="1" source="6uuv5_UHNS2Th5qs2Wvp-1" target="6uuv5_UHNS2Th5qs2Wvp-12" edge="1">
          <mxGeometry relative="1" as="geometry" />
        </mxCell>
        <mxCell id="6uuv5_UHNS2Th5qs2Wvp-15" style="edgeStyle=none;rounded=0;orthogonalLoop=1;jettySize=auto;html=1;" parent="1" source="6uuv5_UHNS2Th5qs2Wvp-1" target="6uuv5_UHNS2Th5qs2Wvp-14" edge="1">
          <mxGeometry relative="1" as="geometry" />
        </mxCell>
        <mxCell id="6uuv5_UHNS2Th5qs2Wvp-1" value="Все мысли опрашиваются в пределах узла.&lt;br&gt;&lt;br&gt;То есть мысль связанна непосредственно с узлом.&lt;br&gt;&lt;br&gt;" style="text;html=1;strokeColor=#82b366;fillColor=#d5e8d4;align=left;verticalAlign=top;whiteSpace=wrap;rounded=0;fontSize=18;" parent="1" vertex="1">
          <mxGeometry x="-3550" y="-1690" width="445" height="115" as="geometry" />
        </mxCell>
        <mxCell id="6uuv5_UHNS2Th5qs2Wvp-2" value="Просто серис узла имеет отдел логики опроса всех мыслей в пределах узла.&lt;br&gt;&lt;br&gt;Таким образом критери знания мысли хранится в самой мысле.&lt;br&gt;&lt;br&gt;И критерий финализации узла зависит от очков мысли" style="text;html=1;strokeColor=#82b366;fillColor=#d5e8d4;align=left;verticalAlign=top;whiteSpace=wrap;rounded=0;fontSize=18;" parent="1" vertex="1">
          <mxGeometry x="-3580" y="-1440" width="440" height="204.5" as="geometry" />
        </mxCell>
        <mxCell id="6uuv5_UHNS2Th5qs2Wvp-4" value="На странице узла есть кнопка проверить знания, что запускает опрос мыслей узла." style="text;html=1;strokeColor=#82b366;fillColor=#d5e8d4;align=left;verticalAlign=top;whiteSpace=wrap;rounded=0;fontSize=18;" parent="1" vertex="1">
          <mxGeometry x="-4190" y="-1734.75" width="440" height="74.75" as="geometry" />
        </mxCell>
        <mxCell id="6uuv5_UHNS2Th5qs2Wvp-5" value="Так же есть глобальная кнопка опросить мысли.&lt;br&gt;&lt;br&gt;Она выбирает из объей кучи мыслей и запускает опрос." style="text;html=1;strokeColor=#82b366;fillColor=#d5e8d4;align=left;verticalAlign=top;whiteSpace=wrap;rounded=0;fontSize=18;" parent="1" vertex="1">
          <mxGeometry x="-4310" y="-1444" width="440" height="104" as="geometry" />
        </mxCell>
        <mxCell id="6uuv5_UHNS2Th5qs2Wvp-8" value="В любом случае узлы позволяют группировать лексику и выражения по рамкам." style="text;html=1;strokeColor=#82b366;fillColor=#d5e8d4;align=left;verticalAlign=top;whiteSpace=wrap;rounded=0;fontSize=18;" parent="1" vertex="1">
          <mxGeometry x="-4540" y="-1604.75" width="440" height="74.75" as="geometry" />
        </mxCell>
        <mxCell id="6uuv5_UHNS2Th5qs2Wvp-17" style="edgeStyle=none;rounded=0;orthogonalLoop=1;jettySize=auto;html=1;" parent="1" source="6uuv5_UHNS2Th5qs2Wvp-10" target="6uuv5_UHNS2Th5qs2Wvp-16" edge="1">
          <mxGeometry relative="1" as="geometry" />
        </mxCell>
        <mxCell id="6uuv5_UHNS2Th5qs2Wvp-10" value="Таким образом мысль связана с узлом.&lt;br&gt;&lt;br&gt;Мысль может не иметь привязку к узлу, если хочется просто закинуть в облако." style="text;html=1;strokeColor=#d79b00;fillColor=#ffe6cc;align=left;verticalAlign=top;whiteSpace=wrap;rounded=0;fontSize=18;fontStyle=1" parent="1" vertex="1">
          <mxGeometry x="-3660" y="-1970" width="445" height="115" as="geometry" />
        </mxCell>
        <mxCell id="6uuv5_UHNS2Th5qs2Wvp-12" value="Мысль должна иметь указание языка, так как не понятно, какой язык я тренерую.&lt;br&gt;&lt;br&gt;Или точнее какое крыло мысли (выражение на каком языке) больше сделанно." style="text;html=1;strokeColor=#82b366;fillColor=#d5e8d4;align=left;verticalAlign=top;whiteSpace=wrap;rounded=0;fontSize=18;" parent="1" vertex="1">
          <mxGeometry x="-4140" y="-1950" width="445" height="135" as="geometry" />
        </mxCell>
        <mxCell id="6uuv5_UHNS2Th5qs2Wvp-14" value="Хотя всетаки интересно рассматривать отдельную сущность как юнит, скажем &quot;А&quot;.&lt;br&gt;&lt;br&gt;Этот юнит имеет коллекцию мыслей, нужно ответить на ряд вопросов.&lt;br&gt;&lt;br&gt;Оставим на потом." style="text;html=1;strokeColor=#9673a6;fillColor=#e1d5e7;align=left;verticalAlign=top;whiteSpace=wrap;rounded=0;fontSize=18;" parent="1" vertex="1">
          <mxGeometry x="-4270" y="-1254" width="440" height="184" as="geometry" />
        </mxCell>
        <mxCell id="6uuv5_UHNS2Th5qs2Wvp-16" value="Почему пришел к такому выводу - излишняя сложность в группировании объектов вопросов, в то время, как все мысли в узле должны быть отработаны." style="text;html=1;strokeColor=#d6b656;fillColor=#fff2cc;align=left;verticalAlign=top;whiteSpace=wrap;rounded=0;fontSize=18;fontStyle=1" parent="1" vertex="1">
          <mxGeometry x="-3140" y="-1970" width="445" height="115" as="geometry" />
        </mxCell>
      </root>
    </mxGraphModel>
  </diagram>
  <diagram id="Mu1GudJyhGzTUgUkNS0S" name="Вид страницы Node">
    <mxGraphModel dx="2058" dy="820" grid="1" gridSize="10" guides="1" tooltips="1" connect="1" arrows="1" fold="1" page="1" pageScale="1" pageWidth="850" pageHeight="1100" math="0" shadow="0">
      <root>
        <mxCell id="0" />
        <mxCell id="1" parent="0" />
        <mxCell id="-ACumryAHB3vGVY0CRvS-2" value="Определение задач Node такие как разбор текста, сгруппировать слова, выражения для прохождения вопросов" style="rounded=1;whiteSpace=wrap;html=1;" parent="1" vertex="1">
          <mxGeometry x="40" y="40" width="320" height="80" as="geometry" />
        </mxCell>
        <mxCell id="-ACumryAHB3vGVY0CRvS-3" value="Область коллекции Quest" style="rounded=1;whiteSpace=wrap;html=1;" parent="1" vertex="1">
          <mxGeometry x="40" y="280" width="320" height="120" as="geometry" />
        </mxCell>
        <mxCell id="-ACumryAHB3vGVY0CRvS-4" value="Область коллекции Thought" style="rounded=1;whiteSpace=wrap;html=1;" parent="1" vertex="1">
          <mxGeometry x="520" y="280" width="320" height="120" as="geometry" />
        </mxCell>
        <mxCell id="T4-nk_KFWfko4z0fYI31-1" value="Область исходных текстов, которые нужно разобрать" style="rounded=1;whiteSpace=wrap;html=1;" parent="1" vertex="1">
          <mxGeometry x="520" y="30" width="320" height="120" as="geometry" />
        </mxCell>
      </root>
    </mxGraphModel>
  </diagram>
  <diagram id="aJCtv8GQRc2Hid6AmKbN" name="Схема объектов и web-api">
    <mxGraphModel dx="2908" dy="1920" grid="1" gridSize="10" guides="1" tooltips="1" connect="1" arrows="1" fold="1" page="1" pageScale="1" pageWidth="850" pageHeight="1100" math="0" shadow="0">
      <root>
        <mxCell id="0" />
        <mxCell id="1" parent="0" />
        <mxCell id="wHMLdJ7jL6tPX7jeYec0-1" value="Node" style="rounded=0;whiteSpace=wrap;html=1;" parent="1" vertex="1">
          <mxGeometry x="40" y="40" width="120" height="40" as="geometry" />
        </mxCell>
        <mxCell id="wHMLdJ7jL6tPX7jeYec0-2" value="Terrain" style="rounded=0;whiteSpace=wrap;html=1;" parent="1" vertex="1">
          <mxGeometry x="-200" y="-40" width="120" height="40" as="geometry" />
        </mxCell>
        <mxCell id="wHMLdJ7jL6tPX7jeYec0-3" value="Session" style="rounded=0;whiteSpace=wrap;html=1;" parent="1" vertex="1">
          <mxGeometry x="280" y="-80" width="120" height="40" as="geometry" />
        </mxCell>
        <mxCell id="wHMLdJ7jL6tPX7jeYec0-4" value="Сессия нужна для исключения повторения вопросов" style="text;html=1;strokeColor=none;fillColor=none;align=center;verticalAlign=middle;whiteSpace=wrap;rounded=0;" parent="1" vertex="1">
          <mxGeometry x="240" y="-240" width="200" height="60" as="geometry" />
        </mxCell>
      </root>
    </mxGraphModel>
  </diagram>
  <diagram id="M7WS6BoIAtO66iTwFQT6" name="Node">
    <mxGraphModel dx="4573" dy="722" grid="1" gridSize="10" guides="1" tooltips="1" connect="1" arrows="1" fold="1" page="1" pageScale="1" pageWidth="850" pageHeight="1100" math="0" shadow="0">
      <root>
        <mxCell id="0" />
        <mxCell id="1" parent="0" />
        <mxCell id="X0AYgPEHjOhiDSf7Pb1F-2" value="Node" style="swimlane;fontStyle=0;childLayout=stackLayout;horizontal=1;startSize=26;horizontalStack=0;resizeParent=1;resizeParentMax=0;resizeLast=0;collapsible=1;marginBottom=0;align=center;fontSize=14;" parent="1" vertex="1">
          <mxGeometry x="1750" y="1104" width="160" height="116" as="geometry">
            <mxRectangle x="1720" y="1240" width="70" height="30" as="alternateBounds" />
          </mxGeometry>
        </mxCell>
        <mxCell id="X0AYgPEHjOhiDSf7Pb1F-3" value="id" style="text;strokeColor=none;fillColor=none;spacingLeft=4;spacingRight=4;overflow=hidden;rotatable=0;points=[[0,0.5],[1,0.5]];portConstraint=eastwest;fontSize=12;whiteSpace=wrap;html=1;" parent="X0AYgPEHjOhiDSf7Pb1F-2" vertex="1">
          <mxGeometry y="26" width="160" height="30" as="geometry" />
        </mxCell>
        <mxCell id="X0AYgPEHjOhiDSf7Pb1F-4" value="name" style="text;strokeColor=none;fillColor=none;spacingLeft=4;spacingRight=4;overflow=hidden;rotatable=0;points=[[0,0.5],[1,0.5]];portConstraint=eastwest;fontSize=12;whiteSpace=wrap;html=1;" parent="X0AYgPEHjOhiDSf7Pb1F-2" vertex="1">
          <mxGeometry y="56" width="160" height="30" as="geometry" />
        </mxCell>
        <mxCell id="X0AYgPEHjOhiDSf7Pb1F-5" value="terrainId" style="text;strokeColor=none;fillColor=none;spacingLeft=4;spacingRight=4;overflow=hidden;rotatable=0;points=[[0,0.5],[1,0.5]];portConstraint=eastwest;fontSize=12;whiteSpace=wrap;html=1;" parent="X0AYgPEHjOhiDSf7Pb1F-2" vertex="1">
          <mxGeometry y="86" width="160" height="30" as="geometry" />
        </mxCell>
        <mxCell id="Vg166jXXoynZ89rSPAgs-1" value="Для чего сущность Node:&lt;br&gt;- разбираемый текст&lt;br&gt;- куски текста - Thought - короткие и длинные&lt;br&gt;- набор методов осуществления повторения,&amp;nbsp;" style="text;html=1;strokeColor=none;fillColor=none;align=left;verticalAlign=top;whiteSpace=wrap;rounded=0;" parent="1" vertex="1">
          <mxGeometry x="1200" y="1120" width="260" height="100" as="geometry" />
        </mxCell>
        <mxCell id="Vg166jXXoynZ89rSPAgs-5" value="Механизм предполагает сбор коллекции пунктов" style="rounded=1;whiteSpace=wrap;html=1;spacingLeft=10;spacingRight=10;" parent="1" vertex="1">
          <mxGeometry x="2080" y="1120" width="200" height="60" as="geometry" />
        </mxCell>
        <mxCell id="Vg166jXXoynZ89rSPAgs-6" value="ExamService" style="rounded=1;whiteSpace=wrap;html=1;spacingLeft=10;spacingRight=10;" parent="1" vertex="1">
          <mxGeometry x="1320" y="1280" width="120" height="80" as="geometry" />
        </mxCell>
        <mxCell id="Vg166jXXoynZ89rSPAgs-30" value="Node" style="swimlane;fontStyle=0;childLayout=stackLayout;horizontal=1;startSize=26;horizontalStack=0;resizeParent=1;resizeParentMax=0;resizeLast=0;collapsible=1;marginBottom=0;align=center;fontSize=14;" parent="1" vertex="1">
          <mxGeometry x="1580" y="1714" width="160" height="116" as="geometry">
            <mxRectangle x="1720" y="1240" width="70" height="30" as="alternateBounds" />
          </mxGeometry>
        </mxCell>
        <mxCell id="Vg166jXXoynZ89rSPAgs-31" value="id" style="text;strokeColor=none;fillColor=none;spacingLeft=4;spacingRight=4;overflow=hidden;rotatable=0;points=[[0,0.5],[1,0.5]];portConstraint=eastwest;fontSize=12;whiteSpace=wrap;html=1;" parent="Vg166jXXoynZ89rSPAgs-30" vertex="1">
          <mxGeometry y="26" width="160" height="30" as="geometry" />
        </mxCell>
        <mxCell id="Vg166jXXoynZ89rSPAgs-32" value="name" style="text;strokeColor=none;fillColor=none;spacingLeft=4;spacingRight=4;overflow=hidden;rotatable=0;points=[[0,0.5],[1,0.5]];portConstraint=eastwest;fontSize=12;whiteSpace=wrap;html=1;" parent="Vg166jXXoynZ89rSPAgs-30" vertex="1">
          <mxGeometry y="56" width="160" height="30" as="geometry" />
        </mxCell>
        <mxCell id="Vg166jXXoynZ89rSPAgs-33" value="terrainId" style="text;strokeColor=none;fillColor=none;spacingLeft=4;spacingRight=4;overflow=hidden;rotatable=0;points=[[0,0.5],[1,0.5]];portConstraint=eastwest;fontSize=12;whiteSpace=wrap;html=1;" parent="Vg166jXXoynZ89rSPAgs-30" vertex="1">
          <mxGeometry y="86" width="160" height="30" as="geometry" />
        </mxCell>
        <mxCell id="Vg166jXXoynZ89rSPAgs-35" value="Thought" style="swimlane;fontStyle=0;childLayout=stackLayout;horizontal=1;startSize=26;horizontalStack=0;resizeParent=1;resizeParentMax=0;resizeLast=0;collapsible=1;marginBottom=0;align=center;fontSize=14;" parent="1" vertex="1">
          <mxGeometry x="1870" y="1768" width="160" height="116" as="geometry">
            <mxRectangle x="1720" y="1240" width="70" height="30" as="alternateBounds" />
          </mxGeometry>
        </mxCell>
        <mxCell id="Vg166jXXoynZ89rSPAgs-36" value="id" style="text;strokeColor=none;fillColor=none;spacingLeft=4;spacingRight=4;overflow=hidden;rotatable=0;points=[[0,0.5],[1,0.5]];portConstraint=eastwest;fontSize=12;whiteSpace=wrap;html=1;" parent="Vg166jXXoynZ89rSPAgs-35" vertex="1">
          <mxGeometry y="26" width="160" height="30" as="geometry" />
        </mxCell>
        <mxCell id="Vg166jXXoynZ89rSPAgs-37" value="nodeId" style="text;strokeColor=none;fillColor=none;spacingLeft=4;spacingRight=4;overflow=hidden;rotatable=0;points=[[0,0.5],[1,0.5]];portConstraint=eastwest;fontSize=12;whiteSpace=wrap;html=1;" parent="Vg166jXXoynZ89rSPAgs-35" vertex="1">
          <mxGeometry y="56" width="160" height="30" as="geometry" />
        </mxCell>
        <mxCell id="Vg166jXXoynZ89rSPAgs-38" value="text" style="text;strokeColor=none;fillColor=none;spacingLeft=4;spacingRight=4;overflow=hidden;rotatable=0;points=[[0,0.5],[1,0.5]];portConstraint=eastwest;fontSize=12;whiteSpace=wrap;html=1;" parent="Vg166jXXoynZ89rSPAgs-35" vertex="1">
          <mxGeometry y="86" width="160" height="30" as="geometry" />
        </mxCell>
        <mxCell id="Vg166jXXoynZ89rSPAgs-39" value="ThExpression" style="swimlane;fontStyle=0;childLayout=stackLayout;horizontal=1;startSize=26;horizontalStack=0;resizeParent=1;resizeParentMax=0;resizeLast=0;collapsible=1;marginBottom=0;align=center;fontSize=14;" parent="1" vertex="1">
          <mxGeometry x="2120" y="1764" width="160" height="176" as="geometry">
            <mxRectangle x="1720" y="1240" width="70" height="30" as="alternateBounds" />
          </mxGeometry>
        </mxCell>
        <mxCell id="Vg166jXXoynZ89rSPAgs-40" value="id" style="text;strokeColor=none;fillColor=none;spacingLeft=4;spacingRight=4;overflow=hidden;rotatable=0;points=[[0,0.5],[1,0.5]];portConstraint=eastwest;fontSize=12;whiteSpace=wrap;html=1;" parent="Vg166jXXoynZ89rSPAgs-39" vertex="1">
          <mxGeometry y="26" width="160" height="30" as="geometry" />
        </mxCell>
        <mxCell id="Vg166jXXoynZ89rSPAgs-41" value="thoughtId" style="text;strokeColor=none;fillColor=none;spacingLeft=4;spacingRight=4;overflow=hidden;rotatable=0;points=[[0,0.5],[1,0.5]];portConstraint=eastwest;fontSize=12;whiteSpace=wrap;html=1;" parent="Vg166jXXoynZ89rSPAgs-39" vertex="1">
          <mxGeometry y="56" width="160" height="30" as="geometry" />
        </mxCell>
        <mxCell id="Vg166jXXoynZ89rSPAgs-42" value="text" style="text;strokeColor=none;fillColor=none;spacingLeft=4;spacingRight=4;overflow=hidden;rotatable=0;points=[[0,0.5],[1,0.5]];portConstraint=eastwest;fontSize=12;whiteSpace=wrap;html=1;" parent="Vg166jXXoynZ89rSPAgs-39" vertex="1">
          <mxGeometry y="86" width="160" height="30" as="geometry" />
        </mxCell>
        <mxCell id="Vg166jXXoynZ89rSPAgs-80" value="scores" style="text;strokeColor=none;fillColor=none;spacingLeft=4;spacingRight=4;overflow=hidden;rotatable=0;points=[[0,0.5],[1,0.5]];portConstraint=eastwest;fontSize=12;whiteSpace=wrap;html=1;" parent="Vg166jXXoynZ89rSPAgs-39" vertex="1">
          <mxGeometry y="116" width="160" height="30" as="geometry" />
        </mxCell>
        <mxCell id="DPK7hcphA34XBQTg-1_G-5" value="langId" style="text;strokeColor=none;fillColor=none;spacingLeft=4;spacingRight=4;overflow=hidden;rotatable=0;points=[[0,0.5],[1,0.5]];portConstraint=eastwest;fontSize=12;whiteSpace=wrap;html=1;" parent="Vg166jXXoynZ89rSPAgs-39" vertex="1">
          <mxGeometry y="146" width="160" height="30" as="geometry" />
        </mxCell>
        <mxCell id="Vg166jXXoynZ89rSPAgs-43" value="" style="edgeStyle=entityRelationEdgeStyle;fontSize=12;html=1;endArrow=ERmany;rounded=0;" parent="1" source="Vg166jXXoynZ89rSPAgs-35" target="Vg166jXXoynZ89rSPAgs-39" edge="1">
          <mxGeometry width="100" height="100" relative="1" as="geometry">
            <mxPoint x="2050" y="1704" as="sourcePoint" />
            <mxPoint x="2170" y="1749" as="targetPoint" />
          </mxGeometry>
        </mxCell>
        <mxCell id="Vg166jXXoynZ89rSPAgs-44" value="" style="edgeStyle=entityRelationEdgeStyle;fontSize=12;html=1;endArrow=ERmany;rounded=0;" parent="1" source="Vg166jXXoynZ89rSPAgs-30" target="Vg166jXXoynZ89rSPAgs-35" edge="1">
          <mxGeometry width="100" height="100" relative="1" as="geometry">
            <mxPoint x="1860" y="1844" as="sourcePoint" />
            <mxPoint x="1960" y="1744" as="targetPoint" />
          </mxGeometry>
        </mxCell>
        <mxCell id="Vg166jXXoynZ89rSPAgs-63" style="edgeStyle=orthogonalEdgeStyle;rounded=0;orthogonalLoop=1;jettySize=auto;html=1;exitX=0.5;exitY=0;exitDx=0;exitDy=0;" parent="1" source="Vg166jXXoynZ89rSPAgs-51" target="Vg166jXXoynZ89rSPAgs-61" edge="1">
          <mxGeometry relative="1" as="geometry" />
        </mxCell>
        <mxCell id="Vg166jXXoynZ89rSPAgs-51" value="Grade" style="swimlane;fontStyle=0;childLayout=stackLayout;horizontal=1;startSize=26;horizontalStack=0;resizeParent=1;resizeParentMax=0;resizeLast=0;collapsible=1;marginBottom=0;align=center;fontSize=14;" parent="1" vertex="1">
          <mxGeometry x="2920" y="1330" width="160" height="146" as="geometry">
            <mxRectangle x="1720" y="1240" width="70" height="30" as="alternateBounds" />
          </mxGeometry>
        </mxCell>
        <mxCell id="Vg166jXXoynZ89rSPAgs-52" value="id" style="text;strokeColor=none;fillColor=none;spacingLeft=4;spacingRight=4;overflow=hidden;rotatable=0;points=[[0,0.5],[1,0.5]];portConstraint=eastwest;fontSize=12;whiteSpace=wrap;html=1;" parent="Vg166jXXoynZ89rSPAgs-51" vertex="1">
          <mxGeometry y="26" width="160" height="30" as="geometry" />
        </mxCell>
        <mxCell id="Vg166jXXoynZ89rSPAgs-53" value="value" style="text;strokeColor=none;fillColor=none;spacingLeft=4;spacingRight=4;overflow=hidden;rotatable=0;points=[[0,0.5],[1,0.5]];portConstraint=eastwest;fontSize=12;whiteSpace=wrap;html=1;" parent="Vg166jXXoynZ89rSPAgs-51" vertex="1">
          <mxGeometry y="56" width="160" height="30" as="geometry" />
        </mxCell>
        <mxCell id="Vg166jXXoynZ89rSPAgs-60" value="date" style="text;strokeColor=none;fillColor=none;spacingLeft=4;spacingRight=4;overflow=hidden;rotatable=0;points=[[0,0.5],[1,0.5]];portConstraint=eastwest;fontSize=12;whiteSpace=wrap;html=1;" parent="Vg166jXXoynZ89rSPAgs-51" vertex="1">
          <mxGeometry y="86" width="160" height="30" as="geometry" />
        </mxCell>
        <mxCell id="Vg166jXXoynZ89rSPAgs-54" value="nodeId" style="text;strokeColor=none;fillColor=none;spacingLeft=4;spacingRight=4;overflow=hidden;rotatable=0;points=[[0,0.5],[1,0.5]];portConstraint=eastwest;fontSize=12;whiteSpace=wrap;html=1;" parent="Vg166jXXoynZ89rSPAgs-51" vertex="1">
          <mxGeometry y="116" width="160" height="30" as="geometry" />
        </mxCell>
        <mxCell id="Vg166jXXoynZ89rSPAgs-55" value="Node" style="swimlane;fontStyle=0;childLayout=stackLayout;horizontal=1;startSize=26;horizontalStack=0;resizeParent=1;resizeParentMax=0;resizeLast=0;collapsible=1;marginBottom=0;align=center;fontSize=14;" parent="1" vertex="1">
          <mxGeometry x="2680" y="1280" width="160" height="116" as="geometry">
            <mxRectangle x="1720" y="1240" width="70" height="30" as="alternateBounds" />
          </mxGeometry>
        </mxCell>
        <mxCell id="Vg166jXXoynZ89rSPAgs-56" value="id" style="text;strokeColor=none;fillColor=none;spacingLeft=4;spacingRight=4;overflow=hidden;rotatable=0;points=[[0,0.5],[1,0.5]];portConstraint=eastwest;fontSize=12;whiteSpace=wrap;html=1;" parent="Vg166jXXoynZ89rSPAgs-55" vertex="1">
          <mxGeometry y="26" width="160" height="30" as="geometry" />
        </mxCell>
        <mxCell id="Vg166jXXoynZ89rSPAgs-57" value="name" style="text;strokeColor=none;fillColor=none;spacingLeft=4;spacingRight=4;overflow=hidden;rotatable=0;points=[[0,0.5],[1,0.5]];portConstraint=eastwest;fontSize=12;whiteSpace=wrap;html=1;" parent="Vg166jXXoynZ89rSPAgs-55" vertex="1">
          <mxGeometry y="56" width="160" height="30" as="geometry" />
        </mxCell>
        <mxCell id="Vg166jXXoynZ89rSPAgs-58" value="terrainId" style="text;strokeColor=none;fillColor=none;spacingLeft=4;spacingRight=4;overflow=hidden;rotatable=0;points=[[0,0.5],[1,0.5]];portConstraint=eastwest;fontSize=12;whiteSpace=wrap;html=1;" parent="Vg166jXXoynZ89rSPAgs-55" vertex="1">
          <mxGeometry y="86" width="160" height="30" as="geometry" />
        </mxCell>
        <mxCell id="Vg166jXXoynZ89rSPAgs-59" value="" style="edgeStyle=entityRelationEdgeStyle;fontSize=12;html=1;endArrow=ERmany;rounded=0;" parent="1" source="Vg166jXXoynZ89rSPAgs-55" target="Vg166jXXoynZ89rSPAgs-51" edge="1">
          <mxGeometry width="100" height="100" relative="1" as="geometry">
            <mxPoint x="2840" y="1390" as="sourcePoint" />
            <mxPoint x="2940" y="1290" as="targetPoint" />
          </mxGeometry>
        </mxCell>
        <mxCell id="Vg166jXXoynZ89rSPAgs-65" style="edgeStyle=orthogonalEdgeStyle;rounded=0;orthogonalLoop=1;jettySize=auto;html=1;exitX=0.25;exitY=0;exitDx=0;exitDy=0;" parent="1" source="Vg166jXXoynZ89rSPAgs-61" target="Vg166jXXoynZ89rSPAgs-64" edge="1">
          <mxGeometry relative="1" as="geometry" />
        </mxCell>
        <mxCell id="Vg166jXXoynZ89rSPAgs-61" value="Результат прохождения всей коллекции вопросов" style="text;html=1;strokeColor=none;fillColor=none;align=center;verticalAlign=middle;whiteSpace=wrap;rounded=0;" parent="1" vertex="1">
          <mxGeometry x="2935" y="1230" width="150" height="60" as="geometry" />
        </mxCell>
        <mxCell id="Vg166jXXoynZ89rSPAgs-64" value="Критерий выполнения: средний балл от 85%&lt;br&gt;не менее 10 оценок" style="text;html=1;strokeColor=none;fillColor=none;align=center;verticalAlign=middle;whiteSpace=wrap;rounded=0;" parent="1" vertex="1">
          <mxGeometry x="2890" y="1130" width="150" height="60" as="geometry" />
        </mxCell>
        <mxCell id="Vg166jXXoynZ89rSPAgs-69" style="edgeStyle=orthogonalEdgeStyle;rounded=0;orthogonalLoop=1;jettySize=auto;html=1;exitX=0.25;exitY=1;exitDx=0;exitDy=0;" parent="1" source="Vg166jXXoynZ89rSPAgs-66" target="Vg166jXXoynZ89rSPAgs-68" edge="1">
          <mxGeometry relative="1" as="geometry" />
        </mxCell>
        <mxCell id="Vg166jXXoynZ89rSPAgs-66" value="Вариант 2&lt;br&gt;Grade относится к пункту, то есть к Thought&lt;br&gt;Критерий строится из очков всех Thought ноды.&lt;br&gt;Правильно ответил - +1 очко" style="text;html=1;strokeColor=none;fillColor=none;align=left;verticalAlign=top;whiteSpace=wrap;rounded=0;" parent="1" vertex="1">
          <mxGeometry x="3150" y="1476" width="180" height="124" as="geometry" />
        </mxCell>
        <mxCell id="Vg166jXXoynZ89rSPAgs-67" style="edgeStyle=orthogonalEdgeStyle;rounded=0;orthogonalLoop=1;jettySize=auto;html=1;exitX=1;exitY=0.5;exitDx=0;exitDy=0;" parent="1" source="Vg166jXXoynZ89rSPAgs-54" target="Vg166jXXoynZ89rSPAgs-66" edge="1">
          <mxGeometry relative="1" as="geometry" />
        </mxCell>
        <mxCell id="Vg166jXXoynZ89rSPAgs-71" style="edgeStyle=orthogonalEdgeStyle;rounded=0;orthogonalLoop=1;jettySize=auto;html=1;exitX=0.5;exitY=1;exitDx=0;exitDy=0;" parent="1" source="Vg166jXXoynZ89rSPAgs-68" target="Vg166jXXoynZ89rSPAgs-70" edge="1">
          <mxGeometry relative="1" as="geometry" />
        </mxCell>
        <mxCell id="Vg166jXXoynZ89rSPAgs-68" value="Вариант 2 предполагает, что сессии не нужны.&lt;br&gt;&lt;br&gt;Система будет брать случайный вопрос.&lt;br&gt;&lt;br&gt;Чем больше очков вопроса, тем реже он будет выбран" style="text;html=1;strokeColor=none;fillColor=none;align=left;verticalAlign=top;whiteSpace=wrap;rounded=0;" parent="1" vertex="1">
          <mxGeometry x="2950" y="1636" width="180" height="124" as="geometry" />
        </mxCell>
        <mxCell id="Vg166jXXoynZ89rSPAgs-73" style="edgeStyle=orthogonalEdgeStyle;rounded=0;orthogonalLoop=1;jettySize=auto;html=1;exitX=0.5;exitY=1;exitDx=0;exitDy=0;" parent="1" source="Vg166jXXoynZ89rSPAgs-70" target="Vg166jXXoynZ89rSPAgs-72" edge="1">
          <mxGeometry relative="1" as="geometry" />
        </mxCell>
        <mxCell id="Vg166jXXoynZ89rSPAgs-75" style="edgeStyle=orthogonalEdgeStyle;rounded=0;orthogonalLoop=1;jettySize=auto;html=1;exitX=0;exitY=0.5;exitDx=0;exitDy=0;" parent="1" source="Vg166jXXoynZ89rSPAgs-70" target="Vg166jXXoynZ89rSPAgs-74" edge="1">
          <mxGeometry relative="1" as="geometry" />
        </mxCell>
        <mxCell id="Vg166jXXoynZ89rSPAgs-70" value="Тогда и Grade не нужен, очки можно указывать прямо в Thought" style="text;html=1;strokeColor=none;fillColor=none;align=left;verticalAlign=top;whiteSpace=wrap;rounded=0;" parent="1" vertex="1">
          <mxGeometry x="3010" y="1810" width="180" height="60" as="geometry" />
        </mxCell>
        <mxCell id="Vg166jXXoynZ89rSPAgs-72" value="Но это нарушение принципа единственной ответственности; Хотя пусть объект Thought выполняет роль и хранения мысли и очки прохождения и в общем пусть будет едниницой работы" style="text;html=1;strokeColor=#b85450;fillColor=#f8cecc;align=left;verticalAlign=top;whiteSpace=wrap;rounded=0;" parent="1" vertex="1">
          <mxGeometry x="3130" y="1910" width="220" height="110" as="geometry" />
        </mxCell>
        <mxCell id="Vg166jXXoynZ89rSPAgs-76" style="edgeStyle=orthogonalEdgeStyle;rounded=0;orthogonalLoop=1;jettySize=auto;html=1;exitX=1;exitY=0.5;exitDx=0;exitDy=0;" parent="1" source="Vg166jXXoynZ89rSPAgs-74" target="Vg166jXXoynZ89rSPAgs-72" edge="1">
          <mxGeometry relative="1" as="geometry" />
        </mxCell>
        <mxCell id="Vg166jXXoynZ89rSPAgs-74" value="Или лучше в ThExpression, чтобы различать, какой язык больше качнул" style="text;html=1;strokeColor=none;fillColor=none;align=left;verticalAlign=top;whiteSpace=wrap;rounded=0;" parent="1" vertex="1">
          <mxGeometry x="2795" y="1910" width="180" height="60" as="geometry" />
        </mxCell>
        <mxCell id="Vg166jXXoynZ89rSPAgs-79" value="" style="group" parent="1" vertex="1" connectable="0">
          <mxGeometry x="10" y="1550" width="1100" height="400" as="geometry" />
        </mxCell>
        <mxCell id="Vg166jXXoynZ89rSPAgs-9" value="Session" style="swimlane;fontStyle=0;childLayout=stackLayout;horizontal=1;startSize=26;horizontalStack=0;resizeParent=1;resizeParentMax=0;resizeLast=0;collapsible=1;marginBottom=0;align=center;fontSize=14;" parent="Vg166jXXoynZ89rSPAgs-79" vertex="1">
          <mxGeometry x="220" y="164" width="160" height="116" as="geometry">
            <mxRectangle x="1720" y="1240" width="70" height="30" as="alternateBounds" />
          </mxGeometry>
        </mxCell>
        <mxCell id="Vg166jXXoynZ89rSPAgs-10" value="id" style="text;spacingLeft=4;spacingRight=4;overflow=hidden;rotatable=0;points=[[0,0.5],[1,0.5]];portConstraint=eastwest;fontSize=12;whiteSpace=wrap;html=1;" parent="Vg166jXXoynZ89rSPAgs-9" vertex="1">
          <mxGeometry y="26" width="160" height="30" as="geometry" />
        </mxCell>
        <mxCell id="Vg166jXXoynZ89rSPAgs-11" value="name" style="text;spacingLeft=4;spacingRight=4;overflow=hidden;rotatable=0;points=[[0,0.5],[1,0.5]];portConstraint=eastwest;fontSize=12;whiteSpace=wrap;html=1;" parent="Vg166jXXoynZ89rSPAgs-9" vertex="1">
          <mxGeometry y="56" width="160" height="30" as="geometry" />
        </mxCell>
        <mxCell id="Vg166jXXoynZ89rSPAgs-12" value="nodeId" style="text;spacingLeft=4;spacingRight=4;overflow=hidden;rotatable=0;points=[[0,0.5],[1,0.5]];portConstraint=eastwest;fontSize=12;whiteSpace=wrap;html=1;" parent="Vg166jXXoynZ89rSPAgs-9" vertex="1">
          <mxGeometry y="86" width="160" height="30" as="geometry" />
        </mxCell>
        <mxCell id="Vg166jXXoynZ89rSPAgs-13" value="SessionPoint" style="swimlane;fontStyle=0;childLayout=stackLayout;horizontal=1;startSize=26;horizontalStack=0;resizeParent=1;resizeParentMax=0;resizeLast=0;collapsible=1;marginBottom=0;align=center;fontSize=14;" parent="Vg166jXXoynZ89rSPAgs-79" vertex="1">
          <mxGeometry x="460" y="280" width="160" height="116" as="geometry">
            <mxRectangle x="1720" y="1240" width="70" height="30" as="alternateBounds" />
          </mxGeometry>
        </mxCell>
        <mxCell id="Vg166jXXoynZ89rSPAgs-14" value="thoughtId" style="text;spacingLeft=4;spacingRight=4;overflow=hidden;rotatable=0;points=[[0,0.5],[1,0.5]];portConstraint=eastwest;fontSize=12;whiteSpace=wrap;html=1;" parent="Vg166jXXoynZ89rSPAgs-13" vertex="1">
          <mxGeometry y="26" width="160" height="30" as="geometry" />
        </mxCell>
        <mxCell id="Vg166jXXoynZ89rSPAgs-15" value="sessionId" style="text;spacingLeft=4;spacingRight=4;overflow=hidden;rotatable=0;points=[[0,0.5],[1,0.5]];portConstraint=eastwest;fontSize=12;whiteSpace=wrap;html=1;" parent="Vg166jXXoynZ89rSPAgs-13" vertex="1">
          <mxGeometry y="56" width="160" height="30" as="geometry" />
        </mxCell>
        <mxCell id="Vg166jXXoynZ89rSPAgs-50" value="askingLngId" style="text;spacingLeft=4;spacingRight=4;overflow=hidden;rotatable=0;points=[[0,0.5],[1,0.5]];portConstraint=eastwest;fontSize=12;whiteSpace=wrap;html=1;" parent="Vg166jXXoynZ89rSPAgs-13" vertex="1">
          <mxGeometry y="86" width="160" height="30" as="geometry" />
        </mxCell>
        <mxCell id="Vg166jXXoynZ89rSPAgs-18" value="" style="edgeStyle=entityRelationEdgeStyle;fontSize=12;html=1;endArrow=ERmany;rounded=0;" parent="Vg166jXXoynZ89rSPAgs-79" source="Vg166jXXoynZ89rSPAgs-9" target="Vg166jXXoynZ89rSPAgs-13" edge="1">
          <mxGeometry width="100" height="100" relative="1" as="geometry">
            <mxPoint x="470" y="330" as="sourcePoint" />
            <mxPoint x="570" y="230" as="targetPoint" />
          </mxGeometry>
        </mxCell>
        <mxCell id="Vg166jXXoynZ89rSPAgs-19" value="Thought" style="swimlane;fontStyle=0;childLayout=stackLayout;horizontal=1;startSize=26;horizontalStack=0;resizeParent=1;resizeParentMax=0;resizeLast=0;collapsible=1;marginBottom=0;align=center;fontSize=14;" parent="Vg166jXXoynZ89rSPAgs-79" vertex="1">
          <mxGeometry x="710" y="284" width="160" height="116" as="geometry">
            <mxRectangle x="1720" y="1240" width="70" height="30" as="alternateBounds" />
          </mxGeometry>
        </mxCell>
        <mxCell id="Vg166jXXoynZ89rSPAgs-20" value="id" style="text;spacingLeft=4;spacingRight=4;overflow=hidden;rotatable=0;points=[[0,0.5],[1,0.5]];portConstraint=eastwest;fontSize=12;whiteSpace=wrap;html=1;" parent="Vg166jXXoynZ89rSPAgs-19" vertex="1">
          <mxGeometry y="26" width="160" height="30" as="geometry" />
        </mxCell>
        <mxCell id="Vg166jXXoynZ89rSPAgs-21" value="nodeId" style="text;spacingLeft=4;spacingRight=4;overflow=hidden;rotatable=0;points=[[0,0.5],[1,0.5]];portConstraint=eastwest;fontSize=12;whiteSpace=wrap;html=1;" parent="Vg166jXXoynZ89rSPAgs-19" vertex="1">
          <mxGeometry y="56" width="160" height="30" as="geometry" />
        </mxCell>
        <mxCell id="Vg166jXXoynZ89rSPAgs-23" value="text" style="text;spacingLeft=4;spacingRight=4;overflow=hidden;rotatable=0;points=[[0,0.5],[1,0.5]];portConstraint=eastwest;fontSize=12;whiteSpace=wrap;html=1;" parent="Vg166jXXoynZ89rSPAgs-19" vertex="1">
          <mxGeometry y="86" width="160" height="30" as="geometry" />
        </mxCell>
        <mxCell id="Vg166jXXoynZ89rSPAgs-22" value="" style="fontSize=12;html=1;endArrow=ERmandOne;rounded=0;" parent="Vg166jXXoynZ89rSPAgs-79" source="Vg166jXXoynZ89rSPAgs-13" target="Vg166jXXoynZ89rSPAgs-19" edge="1">
          <mxGeometry width="100" height="100" relative="1" as="geometry">
            <mxPoint x="550" y="340" as="sourcePoint" />
            <mxPoint x="650" y="240" as="targetPoint" />
          </mxGeometry>
        </mxCell>
        <mxCell id="Vg166jXXoynZ89rSPAgs-24" value="ThExpression" style="swimlane;fontStyle=0;childLayout=stackLayout;horizontal=1;startSize=26;horizontalStack=0;resizeParent=1;resizeParentMax=0;resizeLast=0;collapsible=1;marginBottom=0;align=center;fontSize=14;" parent="Vg166jXXoynZ89rSPAgs-79" vertex="1">
          <mxGeometry x="940" y="270" width="160" height="116" as="geometry">
            <mxRectangle x="1720" y="1240" width="70" height="30" as="alternateBounds" />
          </mxGeometry>
        </mxCell>
        <mxCell id="Vg166jXXoynZ89rSPAgs-25" value="id" style="text;spacingLeft=4;spacingRight=4;overflow=hidden;rotatable=0;points=[[0,0.5],[1,0.5]];portConstraint=eastwest;fontSize=12;whiteSpace=wrap;html=1;" parent="Vg166jXXoynZ89rSPAgs-24" vertex="1">
          <mxGeometry y="26" width="160" height="30" as="geometry" />
        </mxCell>
        <mxCell id="Vg166jXXoynZ89rSPAgs-26" value="thoughtId" style="text;spacingLeft=4;spacingRight=4;overflow=hidden;rotatable=0;points=[[0,0.5],[1,0.5]];portConstraint=eastwest;fontSize=12;whiteSpace=wrap;html=1;" parent="Vg166jXXoynZ89rSPAgs-24" vertex="1">
          <mxGeometry y="56" width="160" height="30" as="geometry" />
        </mxCell>
        <mxCell id="Vg166jXXoynZ89rSPAgs-27" value="text" style="text;spacingLeft=4;spacingRight=4;overflow=hidden;rotatable=0;points=[[0,0.5],[1,0.5]];portConstraint=eastwest;fontSize=12;whiteSpace=wrap;html=1;" parent="Vg166jXXoynZ89rSPAgs-24" vertex="1">
          <mxGeometry y="86" width="160" height="30" as="geometry" />
        </mxCell>
        <mxCell id="Vg166jXXoynZ89rSPAgs-29" value="" style="fontSize=12;html=1;endArrow=ERmany;rounded=0;" parent="Vg166jXXoynZ89rSPAgs-79" source="Vg166jXXoynZ89rSPAgs-19" target="Vg166jXXoynZ89rSPAgs-24" edge="1">
          <mxGeometry width="100" height="100" relative="1" as="geometry">
            <mxPoint x="890" y="220" as="sourcePoint" />
            <mxPoint x="1010" y="265" as="targetPoint" />
          </mxGeometry>
        </mxCell>
        <mxCell id="Vg166jXXoynZ89rSPAgs-45" value="Node" style="swimlane;fontStyle=0;childLayout=stackLayout;horizontal=1;startSize=26;horizontalStack=0;resizeParent=1;resizeParentMax=0;resizeLast=0;collapsible=1;marginBottom=0;align=center;fontSize=14;" parent="Vg166jXXoynZ89rSPAgs-79" vertex="1">
          <mxGeometry y="140" width="160" height="116" as="geometry">
            <mxRectangle x="1720" y="1240" width="70" height="30" as="alternateBounds" />
          </mxGeometry>
        </mxCell>
        <mxCell id="Vg166jXXoynZ89rSPAgs-46" value="id" style="text;spacingLeft=4;spacingRight=4;overflow=hidden;rotatable=0;points=[[0,0.5],[1,0.5]];portConstraint=eastwest;fontSize=12;whiteSpace=wrap;html=1;" parent="Vg166jXXoynZ89rSPAgs-45" vertex="1">
          <mxGeometry y="26" width="160" height="30" as="geometry" />
        </mxCell>
        <mxCell id="Vg166jXXoynZ89rSPAgs-47" value="name" style="text;spacingLeft=4;spacingRight=4;overflow=hidden;rotatable=0;points=[[0,0.5],[1,0.5]];portConstraint=eastwest;fontSize=12;whiteSpace=wrap;html=1;" parent="Vg166jXXoynZ89rSPAgs-45" vertex="1">
          <mxGeometry y="56" width="160" height="30" as="geometry" />
        </mxCell>
        <mxCell id="Vg166jXXoynZ89rSPAgs-48" value="terrainId" style="text;spacingLeft=4;spacingRight=4;overflow=hidden;rotatable=0;points=[[0,0.5],[1,0.5]];portConstraint=eastwest;fontSize=12;whiteSpace=wrap;html=1;" parent="Vg166jXXoynZ89rSPAgs-45" vertex="1">
          <mxGeometry y="86" width="160" height="30" as="geometry" />
        </mxCell>
        <mxCell id="Vg166jXXoynZ89rSPAgs-49" value="" style="edgeStyle=entityRelationEdgeStyle;fontSize=12;html=1;endArrow=ERmandOne;rounded=0;" parent="Vg166jXXoynZ89rSPAgs-79" source="Vg166jXXoynZ89rSPAgs-9" target="Vg166jXXoynZ89rSPAgs-45" edge="1">
          <mxGeometry width="100" height="100" relative="1" as="geometry">
            <mxPoint x="360" y="430" as="sourcePoint" />
            <mxPoint x="460" y="330" as="targetPoint" />
          </mxGeometry>
        </mxCell>
        <mxCell id="Vg166jXXoynZ89rSPAgs-78" value="Отложенный вариант, выбрано решение без сессий; очки пишутся в ThExpression" style="text;html=1;strokeColor=none;fillColor=none;align=center;verticalAlign=middle;whiteSpace=wrap;rounded=0;fontSize=28;" parent="Vg166jXXoynZ89rSPAgs-79" vertex="1">
          <mxGeometry x="290" width="410" height="110" as="geometry" />
        </mxCell>
        <mxCell id="DPK7hcphA34XBQTg-1_G-1" value="Lang" style="swimlane;fontStyle=0;childLayout=stackLayout;horizontal=1;startSize=26;horizontalStack=0;resizeParent=1;resizeParentMax=0;resizeLast=0;collapsible=1;marginBottom=0;align=center;fontSize=14;" parent="1" vertex="1">
          <mxGeometry x="2340" y="1810" width="160" height="116" as="geometry" />
        </mxCell>
        <mxCell id="DPK7hcphA34XBQTg-1_G-2" value="id" style="text;strokeColor=none;fillColor=none;spacingLeft=4;spacingRight=4;overflow=hidden;rotatable=0;points=[[0,0.5],[1,0.5]];portConstraint=eastwest;fontSize=12;whiteSpace=wrap;html=1;" parent="DPK7hcphA34XBQTg-1_G-1" vertex="1">
          <mxGeometry y="26" width="160" height="30" as="geometry" />
        </mxCell>
        <mxCell id="DPK7hcphA34XBQTg-1_G-3" value="name" style="text;strokeColor=none;fillColor=none;spacingLeft=4;spacingRight=4;overflow=hidden;rotatable=0;points=[[0,0.5],[1,0.5]];portConstraint=eastwest;fontSize=12;whiteSpace=wrap;html=1;" parent="DPK7hcphA34XBQTg-1_G-1" vertex="1">
          <mxGeometry y="56" width="160" height="30" as="geometry" />
        </mxCell>
        <mxCell id="DPK7hcphA34XBQTg-1_G-4" value="shortName" style="text;strokeColor=none;fillColor=none;spacingLeft=4;spacingRight=4;overflow=hidden;rotatable=0;points=[[0,0.5],[1,0.5]];portConstraint=eastwest;fontSize=12;whiteSpace=wrap;html=1;" parent="DPK7hcphA34XBQTg-1_G-1" vertex="1">
          <mxGeometry y="86" width="160" height="30" as="geometry" />
        </mxCell>
        <mxCell id="DPK7hcphA34XBQTg-1_G-6" value="" style="fontSize=12;html=1;endArrow=ERmandOne;rounded=0;" parent="1" source="Vg166jXXoynZ89rSPAgs-39" target="DPK7hcphA34XBQTg-1_G-1" edge="1">
          <mxGeometry width="100" height="100" relative="1" as="geometry">
            <mxPoint x="2330" y="1880" as="sourcePoint" />
            <mxPoint x="2430" y="1780" as="targetPoint" />
          </mxGeometry>
        </mxCell>
        <mxCell id="OZDhlTArLcJbUMJs6CiG-2" style="edgeStyle=orthogonalEdgeStyle;rounded=0;orthogonalLoop=1;jettySize=auto;html=1;exitX=0.5;exitY=1;exitDx=0;exitDy=0;" parent="1" source="DPK7hcphA34XBQTg-1_G-7" target="OZDhlTArLcJbUMJs6CiG-1" edge="1">
          <mxGeometry relative="1" as="geometry" />
        </mxCell>
        <mxCell id="DPK7hcphA34XBQTg-1_G-7" value="Вариант&lt;br&gt;по старту прохождения можно вывести все мысли ноды&lt;br&gt;коллекция Thought находится в front-end&lt;br&gt;При следующем занятии из бд беруться Thought с меньшим количеством баллов&lt;br&gt;&lt;br&gt;Либо взять первые 10, выборка идет так же по очкам.&lt;br&gt;&lt;br&gt;Или просто все вывести и отвечать какой пожелаю, с выводом модалки для ответа.&lt;br&gt;Ответил на вопрос - отправил на сервер, убрал его из списка экзамена." style="text;html=1;strokeColor=none;fillColor=none;align=left;verticalAlign=top;whiteSpace=wrap;rounded=0;" parent="1" vertex="1">
          <mxGeometry x="1790" y="1990" width="440" height="180" as="geometry" />
        </mxCell>
        <mxCell id="OZDhlTArLcJbUMJs6CiG-4" style="edgeStyle=orthogonalEdgeStyle;rounded=0;orthogonalLoop=1;jettySize=auto;html=1;exitX=0.5;exitY=1;exitDx=0;exitDy=0;" parent="1" source="OZDhlTArLcJbUMJs6CiG-1" target="OZDhlTArLcJbUMJs6CiG-3" edge="1">
          <mxGeometry relative="1" as="geometry" />
        </mxCell>
        <mxCell id="OZDhlTArLcJbUMJs6CiG-1" value="Можно выбирать, или закреплять мысли, которые хочется запомнить, то есть отработать по вопросам." style="text;html=1;strokeColor=none;fillColor=none;align=left;verticalAlign=top;whiteSpace=wrap;rounded=0;" parent="1" vertex="1">
          <mxGeometry x="1790" y="2240" width="440" height="50" as="geometry" />
        </mxCell>
        <mxCell id="OZDhlTArLcJbUMJs6CiG-3" value="Таким образом при нажатии кнопки &quot;повторить вопросы&quot; на странирце Node, производится запрос на сервер получить 10 мыслей - пунктов вопросов, эти данные загружаются на front-end и проводится процесс вопросов.&lt;br&gt;&lt;br&gt;Если не завершил 10 вопросов, при другом запросе загружаются так же 10 вопросов. Но учитывается очки ответов на конкретную мысль. Еслиочки выражения маленькие, такую мысль выбираем в первую очередь." style="text;html=1;strokeColor=none;fillColor=none;align=left;verticalAlign=top;whiteSpace=wrap;rounded=0;" parent="1" vertex="1">
          <mxGeometry x="1790" y="2320" width="440" height="120" as="geometry" />
        </mxCell>
      </root>
    </mxGraphModel>
  </diagram>
  <diagram id="MaJyc0ATpKGj9hJ0IdAa" name="Langs">
    <mxGraphModel dx="358" dy="-280" grid="1" gridSize="10" guides="1" tooltips="1" connect="1" arrows="1" fold="1" page="1" pageScale="1" pageWidth="850" pageHeight="1100" math="0" shadow="0">
      <root>
        <mxCell id="0" />
        <mxCell id="1" parent="0" />
        <mxCell id="AQDhD27LCXTwTv4VP-n0-6" value="Lang" style="swimlane;fontStyle=0;childLayout=stackLayout;horizontal=1;startSize=26;horizontalStack=0;resizeParent=1;resizeParentMax=0;resizeLast=0;collapsible=1;marginBottom=0;align=center;fontSize=14;" parent="1" vertex="1">
          <mxGeometry x="1780" y="1320" width="160" height="116" as="geometry" />
        </mxCell>
        <mxCell id="AQDhD27LCXTwTv4VP-n0-7" value="id" style="text;strokeColor=none;fillColor=none;spacingLeft=4;spacingRight=4;overflow=hidden;rotatable=0;points=[[0,0.5],[1,0.5]];portConstraint=eastwest;fontSize=12;whiteSpace=wrap;html=1;" parent="AQDhD27LCXTwTv4VP-n0-6" vertex="1">
          <mxGeometry y="26" width="160" height="30" as="geometry" />
        </mxCell>
        <mxCell id="AQDhD27LCXTwTv4VP-n0-8" value="name" style="text;strokeColor=none;fillColor=none;spacingLeft=4;spacingRight=4;overflow=hidden;rotatable=0;points=[[0,0.5],[1,0.5]];portConstraint=eastwest;fontSize=12;whiteSpace=wrap;html=1;" parent="AQDhD27LCXTwTv4VP-n0-6" vertex="1">
          <mxGeometry y="56" width="160" height="30" as="geometry" />
        </mxCell>
        <mxCell id="AQDhD27LCXTwTv4VP-n0-9" value="shortName" style="text;strokeColor=none;fillColor=none;spacingLeft=4;spacingRight=4;overflow=hidden;rotatable=0;points=[[0,0.5],[1,0.5]];portConstraint=eastwest;fontSize=12;whiteSpace=wrap;html=1;" parent="AQDhD27LCXTwTv4VP-n0-6" vertex="1">
          <mxGeometry y="86" width="160" height="30" as="geometry" />
        </mxCell>
      </root>
    </mxGraphModel>
  </diagram>
  <diagram id="X343kY0za75lFiqQFlMv" name="Алгоритм вопросов без сессий">
    <mxGraphModel dx="358" dy="820" grid="1" gridSize="10" guides="1" tooltips="1" connect="1" arrows="1" fold="1" page="1" pageScale="1" pageWidth="850" pageHeight="1100" math="0" shadow="0">
      <root>
        <mxCell id="0" />
        <mxCell id="1" parent="0" />
        <mxCell id="IW31122PodmhGAWNTr4q-1" value="Получить список вопросов" style="rounded=0;whiteSpace=wrap;html=1;" parent="1" vertex="1">
          <mxGeometry x="1760" y="40" width="240" height="80" as="geometry" />
        </mxCell>
        <mxCell id="IW31122PodmhGAWNTr4q-6" style="edgeStyle=orthogonalEdgeStyle;rounded=0;orthogonalLoop=1;jettySize=auto;html=1;exitX=0.5;exitY=1;exitDx=0;exitDy=0;" parent="1" source="IW31122PodmhGAWNTr4q-2" target="IW31122PodmhGAWNTr4q-3" edge="1">
          <mxGeometry relative="1" as="geometry" />
        </mxCell>
        <mxCell id="IW31122PodmhGAWNTr4q-2" value="Вывести вопрос пользователю" style="rounded=0;whiteSpace=wrap;html=1;" parent="1" vertex="1">
          <mxGeometry x="2120" y="280" width="240" height="80" as="geometry" />
        </mxCell>
        <mxCell id="IW31122PodmhGAWNTr4q-7" style="edgeStyle=orthogonalEdgeStyle;rounded=0;orthogonalLoop=1;jettySize=auto;html=1;exitX=0.5;exitY=1;exitDx=0;exitDy=0;" parent="1" source="IW31122PodmhGAWNTr4q-3" target="IW31122PodmhGAWNTr4q-4" edge="1">
          <mxGeometry relative="1" as="geometry" />
        </mxCell>
        <mxCell id="IW31122PodmhGAWNTr4q-3" value="Получить ответ пользователя" style="rounded=0;whiteSpace=wrap;html=1;" parent="1" vertex="1">
          <mxGeometry x="2120" y="400" width="240" height="80" as="geometry" />
        </mxCell>
        <mxCell id="IW31122PodmhGAWNTr4q-12" style="edgeStyle=orthogonalEdgeStyle;rounded=0;orthogonalLoop=1;jettySize=auto;html=1;exitX=0;exitY=0.5;exitDx=0;exitDy=0;" parent="1" source="IW31122PodmhGAWNTr4q-4" target="IW31122PodmhGAWNTr4q-11" edge="1">
          <mxGeometry relative="1" as="geometry" />
        </mxCell>
        <mxCell id="IW31122PodmhGAWNTr4q-4" value="Отправка на сервер; сервер проверяет корректно ли решение пользвателя" style="rounded=0;whiteSpace=wrap;html=1;" parent="1" vertex="1">
          <mxGeometry x="2120" y="520" width="240" height="80" as="geometry" />
        </mxCell>
        <mxCell id="IW31122PodmhGAWNTr4q-9" style="edgeStyle=orthogonalEdgeStyle;rounded=0;orthogonalLoop=1;jettySize=auto;html=1;exitX=0;exitY=0.5;exitDx=0;exitDy=0;" parent="1" source="IW31122PodmhGAWNTr4q-8" target="IW31122PodmhGAWNTr4q-1" edge="1">
          <mxGeometry relative="1" as="geometry" />
        </mxCell>
        <mxCell id="IW31122PodmhGAWNTr4q-10" style="edgeStyle=orthogonalEdgeStyle;rounded=0;orthogonalLoop=1;jettySize=auto;html=1;exitX=0.5;exitY=1;exitDx=0;exitDy=0;" parent="1" source="IW31122PodmhGAWNTr4q-8" target="IW31122PodmhGAWNTr4q-2" edge="1">
          <mxGeometry relative="1" as="geometry" />
        </mxCell>
        <mxCell id="IW31122PodmhGAWNTr4q-8" value="Фронт - енд" style="rounded=0;whiteSpace=wrap;html=1;" parent="1" vertex="1">
          <mxGeometry x="2120" y="160" width="240" height="80" as="geometry" />
        </mxCell>
        <mxCell id="IW31122PodmhGAWNTr4q-11" value="Если корректно, сервер записывает +1 очко выражению" style="rounded=0;whiteSpace=wrap;html=1;" parent="1" vertex="1">
          <mxGeometry x="1760" y="520" width="240" height="80" as="geometry" />
        </mxCell>
      </root>
    </mxGraphModel>
  </diagram>
  <diagram id="PSQYA7_Wps7wER04smSE" name="Thought">
    <mxGraphModel dx="1208" dy="1920" grid="1" gridSize="10" guides="1" tooltips="1" connect="1" arrows="1" fold="1" page="1" pageScale="1" pageWidth="850" pageHeight="1100" math="0" shadow="0">
      <root>
        <mxCell id="0" />
        <mxCell id="1" parent="0" />
        <mxCell id="y1qMBO9F_M7_VF_jFgf4-4" style="edgeStyle=orthogonalEdgeStyle;rounded=0;orthogonalLoop=1;jettySize=auto;html=1;exitX=1;exitY=0.5;exitDx=0;exitDy=0;curved=1;" parent="1" source="y1qMBO9F_M7_VF_jFgf4-2" target="y1qMBO9F_M7_VF_jFgf4-3" edge="1">
          <mxGeometry relative="1" as="geometry" />
        </mxCell>
        <mxCell id="y1qMBO9F_M7_VF_jFgf4-2" value="Thought имеет тег: готовая; созданная мной" style="text;html=1;strokeColor=none;fillColor=none;align=center;verticalAlign=middle;whiteSpace=wrap;rounded=0;" parent="1" vertex="1">
          <mxGeometry x="1670" y="-70" width="320" height="80" as="geometry" />
        </mxCell>
        <mxCell id="y1qMBO9F_M7_VF_jFgf4-6" style="edgeStyle=orthogonalEdgeStyle;rounded=0;orthogonalLoop=1;jettySize=auto;html=1;exitX=1;exitY=0.5;exitDx=0;exitDy=0;curved=1;" parent="1" source="y1qMBO9F_M7_VF_jFgf4-3" target="y1qMBO9F_M7_VF_jFgf4-5" edge="1">
          <mxGeometry relative="1" as="geometry" />
        </mxCell>
        <mxCell id="y1qMBO9F_M7_VF_jFgf4-3" value="При создании Thought на странице Node выбирается тип: из текста; практика" style="text;html=1;strokeColor=none;fillColor=none;align=center;verticalAlign=middle;whiteSpace=wrap;rounded=0;" parent="1" vertex="1">
          <mxGeometry x="2080" y="-10" width="320" height="80" as="geometry" />
        </mxCell>
        <mxCell id="y1qMBO9F_M7_VF_jFgf4-8" style="edgeStyle=orthogonalEdgeStyle;rounded=0;orthogonalLoop=1;jettySize=auto;html=1;exitX=0.25;exitY=0;exitDx=0;exitDy=0;curved=1;" parent="1" source="y1qMBO9F_M7_VF_jFgf4-5" target="y1qMBO9F_M7_VF_jFgf4-7" edge="1">
          <mxGeometry relative="1" as="geometry" />
        </mxCell>
        <mxCell id="y1qMBO9F_M7_VF_jFgf4-5" value="&quot;Практика&quot; отмечается мои упражнения по генерации лексики." style="text;html=1;strokeColor=none;fillColor=none;align=center;verticalAlign=middle;whiteSpace=wrap;rounded=0;" parent="1" vertex="1">
          <mxGeometry x="2480" y="20" width="320" height="80" as="geometry" />
        </mxCell>
        <mxCell id="y1qMBO9F_M7_VF_jFgf4-7" value="Отвечает свойство madeBy: myExerc; native&lt;br&gt;&lt;br&gt;native отмечаются мысли из готового текста" style="text;html=1;strokeColor=none;fillColor=none;align=left;verticalAlign=top;whiteSpace=wrap;rounded=0;" parent="1" vertex="1">
          <mxGeometry x="2480" y="-100" width="320" height="80" as="geometry" />
        </mxCell>
        <mxCell id="QYky5HoNqtMsIzlB0e8T-1" value="Thought" style="swimlane;fontStyle=0;childLayout=stackLayout;horizontal=1;startSize=26;horizontalStack=0;resizeParent=1;resizeParentMax=0;resizeLast=0;collapsible=1;marginBottom=0;align=center;fontSize=14;" parent="1" vertex="1">
          <mxGeometry x="1520" y="120" width="160" height="146" as="geometry">
            <mxRectangle x="1720" y="1240" width="70" height="30" as="alternateBounds" />
          </mxGeometry>
        </mxCell>
        <mxCell id="QYky5HoNqtMsIzlB0e8T-2" value="id" style="text;strokeColor=none;fillColor=none;spacingLeft=4;spacingRight=4;overflow=hidden;rotatable=0;points=[[0,0.5],[1,0.5]];portConstraint=eastwest;fontSize=12;whiteSpace=wrap;html=1;" parent="QYky5HoNqtMsIzlB0e8T-1" vertex="1">
          <mxGeometry y="26" width="160" height="30" as="geometry" />
        </mxCell>
        <mxCell id="QYky5HoNqtMsIzlB0e8T-3" value="nodeId" style="text;strokeColor=none;fillColor=none;spacingLeft=4;spacingRight=4;overflow=hidden;rotatable=0;points=[[0,0.5],[1,0.5]];portConstraint=eastwest;fontSize=12;whiteSpace=wrap;html=1;" parent="QYky5HoNqtMsIzlB0e8T-1" vertex="1">
          <mxGeometry y="56" width="160" height="30" as="geometry" />
        </mxCell>
        <mxCell id="QYky5HoNqtMsIzlB0e8T-4" value="text" style="text;strokeColor=none;fillColor=none;spacingLeft=4;spacingRight=4;overflow=hidden;rotatable=0;points=[[0,0.5],[1,0.5]];portConstraint=eastwest;fontSize=12;whiteSpace=wrap;html=1;" parent="QYky5HoNqtMsIzlB0e8T-1" vertex="1">
          <mxGeometry y="86" width="160" height="30" as="geometry" />
        </mxCell>
        <mxCell id="QYky5HoNqtMsIzlB0e8T-5" value="description" style="text;strokeColor=none;fillColor=none;spacingLeft=4;spacingRight=4;overflow=hidden;rotatable=0;points=[[0,0.5],[1,0.5]];portConstraint=eastwest;fontSize=12;whiteSpace=wrap;html=1;" parent="QYky5HoNqtMsIzlB0e8T-1" vertex="1">
          <mxGeometry y="116" width="160" height="30" as="geometry" />
        </mxCell>
        <mxCell id="QYky5HoNqtMsIzlB0e8T-6" value="Thought" style="swimlane;fontStyle=0;childLayout=stackLayout;horizontal=1;startSize=26;horizontalStack=0;resizeParent=1;resizeParentMax=0;resizeLast=0;collapsible=1;marginBottom=0;align=center;fontSize=14;fillColor=#d5e8d4;strokeColor=#82b366;" parent="1" vertex="1">
          <mxGeometry x="1750" y="40" width="160" height="350" as="geometry">
            <mxRectangle x="1720" y="1240" width="70" height="30" as="alternateBounds" />
          </mxGeometry>
        </mxCell>
        <mxCell id="QYky5HoNqtMsIzlB0e8T-7" value="1" style="text;strokeColor=none;fillColor=none;spacingLeft=4;spacingRight=4;overflow=hidden;rotatable=0;points=[[0,0.5],[1,0.5]];portConstraint=eastwest;fontSize=12;whiteSpace=wrap;html=1;" parent="QYky5HoNqtMsIzlB0e8T-6" vertex="1">
          <mxGeometry y="26" width="160" height="30" as="geometry" />
        </mxCell>
        <mxCell id="QYky5HoNqtMsIzlB0e8T-8" value="1" style="text;strokeColor=none;fillColor=none;spacingLeft=4;spacingRight=4;overflow=hidden;rotatable=0;points=[[0,0.5],[1,0.5]];portConstraint=eastwest;fontSize=12;whiteSpace=wrap;html=1;" parent="QYky5HoNqtMsIzlB0e8T-6" vertex="1">
          <mxGeometry y="56" width="160" height="30" as="geometry" />
        </mxCell>
        <mxCell id="QYky5HoNqtMsIzlB0e8T-9" value="we&#39;re in" style="text;strokeColor=none;fillColor=none;spacingLeft=4;spacingRight=4;overflow=hidden;rotatable=0;points=[[0,0.5],[1,0.5]];portConstraint=eastwest;fontSize=12;whiteSpace=wrap;html=1;" parent="QYky5HoNqtMsIzlB0e8T-6" vertex="1">
          <mxGeometry y="86" width="160" height="30" as="geometry" />
        </mxCell>
        <mxCell id="QYky5HoNqtMsIzlB0e8T-10" value="In the phrase &quot;we&#39;re in,&quot; the term &quot;in&quot; is used as a colloquial expression to indicate involvement or participation in a particular situation or event. It suggests that the speaker and the people they are referring to are actively engaged or included in something positive or desirable. It implies a sense of anticipation, enthusiasm, or readiness for the experience ahead" style="text;strokeColor=none;fillColor=none;spacingLeft=4;spacingRight=4;overflow=hidden;rotatable=0;points=[[0,0.5],[1,0.5]];portConstraint=eastwest;fontSize=12;whiteSpace=wrap;html=1;" parent="QYky5HoNqtMsIzlB0e8T-6" vertex="1">
          <mxGeometry y="116" width="160" height="234" as="geometry" />
        </mxCell>
        <mxCell id="QYky5HoNqtMsIzlB0e8T-13" style="edgeStyle=orthogonalEdgeStyle;rounded=0;orthogonalLoop=1;jettySize=auto;html=1;exitX=0.5;exitY=1;exitDx=0;exitDy=0;curved=1;" parent="1" source="QYky5HoNqtMsIzlB0e8T-11" target="QYky5HoNqtMsIzlB0e8T-12" edge="1">
          <mxGeometry relative="1" as="geometry" />
        </mxCell>
        <mxCell id="QYky5HoNqtMsIzlB0e8T-11" value="Может имеет смысли добавить связи между Thought" style="text;html=1;strokeColor=none;fillColor=none;align=center;verticalAlign=middle;whiteSpace=wrap;rounded=0;" parent="1" vertex="1">
          <mxGeometry x="1960" y="200" width="320" height="40" as="geometry" />
        </mxCell>
        <mxCell id="QYky5HoNqtMsIzlB0e8T-12" value="Хотя все Thought линейно относятся к Node, между собой удобно было бы иметь цепочку связей" style="text;html=1;strokeColor=none;fillColor=none;align=center;verticalAlign=middle;whiteSpace=wrap;rounded=0;" parent="1" vertex="1">
          <mxGeometry x="2000" y="280" width="320" height="40" as="geometry" />
        </mxCell>
      </root>
    </mxGraphModel>
  </diagram>
</mxfile>
